<svg width="249" height="229" viewBox="0 0 249 229" fill="none" xmlns="http://www.w3.org/2000/svg">
<path fill-rule="evenodd" clip-rule="evenodd" d="M232.251 65.7816C232.072 65.6509 231.646 65.6048 231.448 65.5654C230.624 65.4031 229.776 65.3323 228.937 65.3323C226.348 65.3364 223.717 65.5906 221.172 66.0308C219.555 66.31 217.601 67.2505 215.994 66.7397C213.193 65.8499 210.362 65.8937 207.704 67.164C205.275 68.3255 203.43 70.5316 202.354 72.9153C202.191 73.2753 201.533 74.5998 201.346 75.4925C201.266 75.6751 201.19 75.8586 201.121 76.0452C200.925 76.5749 200.749 77.1137 200.586 77.6539C200.516 77.8842 200.34 78.3927 200.549 78.4911C200.216 79.1064 199.92 79.7401 199.675 80.3945C198.96 82.2979 198.178 84.3858 197.926 86.403C197.834 87.15 197.83 87.9013 197.916 88.6496C197.959 89.0197 197.942 89.7633 198.192 90.0448C198.724 90.6415 198.997 89.806 198.937 89.408C198.479 86.3751 199.363 83.5267 200.411 80.6757C201.088 78.8322 202.201 77.1454 203.448 75.6181C204.458 74.3815 205.54 73.408 206.923 72.5883C208.615 71.5857 210.424 70.7755 212.216 69.9625C213.394 69.4277 214.574 68.9071 215.786 68.4464C216.055 68.3437 216.479 68.0807 216.778 68.0797C217.409 68.0776 218.305 68.5441 218.915 68.7175C220.922 69.2886 222.954 70.0198 225.028 70.3114C226.359 70.4986 227.605 70.2878 228.849 69.8443C228.976 69.7992 229.189 69.6827 229.45 69.5163C230.374 69.1607 231.248 68.7131 232.009 68.0672C232.447 67.6954 232.845 67.2145 233.208 66.7744C233.316 66.643 233.364 66.4922 233.366 66.3487C233.448 66.3059 233.502 66.2554 233.515 66.1968C233.605 65.7637 232.78 65.756 232.251 65.7816Z" fill="#89C5CC"/>
<path fill-rule="evenodd" clip-rule="evenodd" d="M21.9635 101.885C21.4557 102.297 20.9576 102.717 20.4716 103.154C20.1012 103.488 19.4458 103.887 19.3129 104.392C19.1747 104.917 19.611 105.408 19.9557 105.726C21.7784 107.404 23.8309 108.539 26.3567 108.728C30.2457 109.018 33.6303 108.024 37.0047 106.068C39.3749 104.694 40.9449 102.662 41.2878 99.9185C44.1106 101.092 46.8405 102.711 49.1606 104.697C50.3053 105.677 51.2912 106.763 52.2031 107.966C52.7872 108.738 53.3522 109.521 53.8764 110.335C54.1042 110.688 54.3361 111.315 54.7123 111.518C55.1541 111.757 55.6881 111.383 55.6662 110.891C55.6477 110.482 55.2066 110.008 55 109.673C54.6574 109.118 54.3095 108.566 53.9431 108.026C53.3502 107.151 52.7374 106.29 52.0692 105.471C50.5671 103.633 48.6562 102.114 46.6753 100.819C42.875 98.3343 38.7043 96.769 34.0803 96.6364C31.237 96.5549 28.8451 97.5271 26.4137 98.9789C24.8999 99.8828 23.3372 100.772 21.9635 101.885Z" fill="#DDE3E9"/>
<path fill-rule="evenodd" clip-rule="evenodd" d="M58.8456 89.8673C55.8825 86.8136 52.9093 83.7978 49.599 81.1084C47.648 79.5239 45.5921 78.0829 43.5786 76.5806C43.8108 76.7844 44.0386 76.9938 44.261 77.2087C43.6324 76.7817 42.8097 76.5402 42.1435 76.1448C41.4002 75.704 40.6895 75.1996 39.9926 74.6914C38.6322 73.6993 37.2923 72.6883 35.8939 71.748C34.336 70.7004 32.7214 69.7325 31.1369 68.7242C29.7921 67.8689 28.4309 66.9323 26.9923 66.2329C26.2082 65.8516 25.4223 65.4 24.635 65.0023C24.3715 64.8693 21.6979 63.1797 21.7046 63.1744C21.8524 63.0632 23.1979 63.6957 23.4059 63.7809C24.0137 64.0294 24.595 64.3264 25.1793 64.6228C24.8586 63.9897 24.6047 63.3242 24.4665 62.6241C24.4238 62.4079 24.0817 60.8345 24.2567 60.7025C24.3442 60.6365 25.1972 63.4518 25.2408 63.7223C25.2763 63.9422 25.2711 64.2587 25.343 64.4669C25.4591 64.8033 25.4533 64.7016 25.709 64.8912C26.1778 65.2384 26.7999 65.4553 27.3073 65.7452C27.5808 65.8981 28.4278 66.5043 28.938 66.677C30.4816 67.4274 32.0462 68.5818 33.5129 69.5402C33.128 68.8162 32.8351 68.0591 32.6215 67.2657C32.5706 67.0775 32.0225 65.3879 32.1555 65.2876C32.3051 65.1744 33.3496 67.7554 33.4115 67.9995C33.5264 68.4535 33.5503 68.9583 33.6943 69.4001C33.8521 69.8847 34.3451 70.0565 34.7892 70.339C36.4235 71.3783 38.002 72.4825 39.5539 73.6376C41.2474 70.6233 39.2948 66.9835 37.6493 64.4544C36.4629 62.6315 34.8663 61.0689 33.18 59.7047C30.9298 57.8838 28.3553 56.4293 25.7839 55.0987C22.7876 53.5486 19.5493 52.5878 16.1826 52.1443C14.4218 51.9119 12.6204 51.9187 10.8417 51.9931C9.9729 52.0291 9.13892 52.1443 8.30628 52.4282C7.931 52.5562 7.5683 52.7175 7.21485 52.898C6.9463 53.035 6.29668 53.1799 6.14227 53.3843C4.87126 55.0401 4.22103 56.69 4.32033 58.7705C4.41421 60.7399 5.0357 62.7103 5.87914 64.4672C6.81844 66.4231 8.02649 68.1986 9.60646 69.6887C10.8119 70.8257 12.1596 71.8151 13.4983 72.7917C18.26 76.2647 24.297 79.2855 30.4641 78.5093C32.4605 78.2584 34.3592 77.5596 36.1335 76.6099C36.5517 76.3863 36.9673 76.16 37.362 75.896C37.6282 75.7178 38.3395 74.9153 38.607 74.886C38.9741 74.8463 39.7642 75.5929 40.1084 75.8202C42.7242 77.5485 45.2714 79.3704 47.7651 81.2657C50.4187 83.2822 52.9417 85.4362 55.3906 87.6912C56.432 88.6503 57.4671 89.6117 58.4782 90.6032C58.7137 90.8339 59.2895 91.6832 59.7165 91.7216C59.9863 91.7461 60.1684 91.5151 60.13 91.2653C60.063 90.8305 59.1492 90.1802 58.8456 89.8673Z" fill="#C1DEE2"/>
<path fill-rule="evenodd" clip-rule="evenodd" d="M229.14 78.0149C227.993 77.764 226.726 77.7832 225.557 77.8038C219.286 77.8893 213.129 80.8603 209.123 85.6073C205.711 89.6485 204.773 94.673 204.099 99.7521C204.033 100.256 204.004 100.757 203.966 101.263C203.958 101.371 203.946 101.468 203.933 101.559C203.668 101.796 203.529 102.073 203.686 102.376C203.102 103.655 202.608 104.966 202.184 106.319C200.937 110.299 199.668 114.356 200.45 118.541C200.632 116.238 201.017 113.882 201.476 111.617C201.502 111.487 201.531 111.358 201.56 111.229C201.564 111.216 201.566 111.202 201.569 111.188C201.732 110.495 201.943 109.822 202.2 109.159C202.203 109.152 202.206 109.145 202.208 109.138C202.242 109.05 202.278 108.964 202.314 108.877C202.388 108.698 202.464 108.518 202.544 108.34C202.571 108.279 202.597 108.218 202.622 108.156C202.996 107.238 203.154 106.204 203.489 105.254C203.57 105.038 203.653 104.823 203.741 104.609C203.747 104.596 203.752 104.584 203.757 104.572C203.995 103.995 204.257 103.427 204.534 102.863C204.685 102.75 204.765 102.469 204.896 102.213C204.922 102.163 205.133 101.827 205.195 101.633C205.359 101.317 205.521 101.001 205.686 100.685C205.681 100.687 205.676 100.689 205.671 100.691C205.835 100.387 206.001 100.085 206.165 99.7847C206.201 99.7187 206.237 99.6527 206.273 99.5864C206.332 99.481 206.391 99.3756 206.45 99.2705C206.999 98.2868 207.581 97.323 208.186 96.371C208.402 96.0312 208.917 95.5439 209.016 95.1627C209.02 95.1482 209.021 95.135 209.023 95.1216C210.335 93.2768 211.846 91.5754 213.658 90.2274C213.439 90.4645 212.973 91.2683 212.85 91.4276C212.473 91.9149 212.064 92.3685 211.654 92.8279C210.919 93.6506 210.202 94.4992 209.564 95.3967C208.398 97.0381 207.392 98.7654 206.441 100.528C206.432 100.538 206.422 100.548 206.414 100.558C205.935 101.148 205.635 102.039 205.291 102.714C206.652 102.082 208.158 101.671 209.555 101.111C210.949 100.552 212.304 99.9299 213.613 99.1995C215.352 98.2282 217.157 97.1321 218.8 95.8914C220.684 94.7222 222.266 93.1128 223.663 91.4239C225.316 89.4255 226.831 87.41 227.768 84.9836C228.228 83.7915 228.59 82.5481 228.805 81.2903C228.814 81.2357 228.826 81.1761 228.839 81.1145C229.059 80.6801 229.255 80.2359 229.42 79.7816C229.682 79.0609 230.3 78.2682 229.14 78.0149Z" fill="#69A1AC"/>
<path fill-rule="evenodd" clip-rule="evenodd" d="M34.6607 86.4572C34.3014 86.0676 33.8976 85.716 33.4234 85.4651C33.3035 85.4018 32.4106 84.9775 32.3524 85.0704C32.217 85.2873 34.5527 86.3326 34.6607 86.4572ZM38.8944 83.8544C38.8914 83.8709 39.2009 84.3966 39.2854 84.5582C39.4647 84.902 39.6303 85.2523 39.7861 85.6035C39.5556 84.9835 39.3184 84.4084 38.8944 83.8544ZM17.2432 88.1343C16.945 88.2303 16.5865 87.8514 16.9733 87.7582C17.2862 87.6834 17.2709 87.6659 17.4114 87.4133C17.5255 87.2085 17.5958 86.9587 17.6959 86.7438C17.9083 86.2878 18.1493 85.8527 18.445 85.4452C19.0788 84.5717 19.851 83.819 20.7171 83.1845C22.2286 82.0779 23.9234 81.066 25.7212 80.5578C28.5797 79.7495 31.8331 79.6997 34.6961 80.2601C36.4693 80.6069 38.0895 81.2104 39.2669 82.6393C39.8554 83.3533 40.3174 84.1898 40.5193 85.1108C40.5721 85.3516 40.562 85.6194 40.628 85.8551C40.7296 86.2178 40.6848 86.1211 41.1085 86.1915C41.5708 86.2686 42.0328 86.3471 42.4948 86.4273C43.7045 86.6367 44.9212 86.859 46.0999 87.1988C46.4879 87.3106 46.8671 87.4473 47.2379 87.6059C47.5182 87.7258 48.6343 88.1027 48.7699 88.467C48.9957 89.0735 48.2393 88.7988 48.0041 88.6664C47.7982 88.5509 47.5869 88.4428 47.3725 88.3434C46.8324 88.0936 46.2698 87.8999 45.6945 87.746C45.0726 87.5797 44.4383 87.4554 43.8061 87.3308C43.2169 87.2149 42.6254 87.1095 42.0328 87.0085C41.7037 86.9526 41.3746 86.8981 41.0452 86.8438C40.9325 86.825 40.7343 86.7277 40.7491 86.8741C40.0566 86.7404 39.3079 86.7596 38.6027 86.7229C37.7389 86.6778 36.8718 86.6408 36.005 86.6677C35.3798 86.6872 34.7543 86.7283 34.1321 86.8125C33.7687 86.8617 33.4111 86.9334 33.0545 87.0243C32.8586 87.0745 32.0863 87.1806 31.9796 87.3513C32.0254 87.2779 32.8778 87.3493 32.9863 87.3449C33.4203 87.3288 33.8508 87.2857 34.2832 87.2375C35.0857 87.1476 35.8882 87.1008 36.6931 87.1075C36.6901 87.249 36.1403 87.5009 36.006 87.5945C35.7052 87.805 35.4168 88.034 35.148 88.2855C34.6745 88.7284 34.1072 89.277 33.7798 89.802C33.8764 89.6471 34.3525 89.446 34.5214 89.3278C34.7923 89.1385 35.0578 88.9365 35.3088 88.7206C35.5403 88.5213 35.7567 88.3057 35.9693 88.0858C36.182 87.8659 36.4704 87.4083 36.75 87.2618C36.7668 87.2527 36.8886 87.349 36.9576 87.3163C37.0276 87.2833 37.1144 87.1183 37.1319 87.1116C37.392 87.0112 37.8859 87.1361 38.1595 87.1489C38.8685 87.1816 39.5771 87.2244 40.2854 87.2634C40.5052 87.2756 40.6916 87.2254 40.7747 87.3874C40.8628 87.5605 40.701 88.0148 40.6549 88.203C40.484 88.9021 40.1808 89.5289 39.703 90.0707C38.8086 91.0854 37.7053 91.7616 36.4592 92.2142C31.6864 93.9472 26.6087 94.6413 21.8373 92.8386C19.8619 92.092 16.887 90.7584 17.2432 88.1343Z" fill="#89C5CC"/>
<g opacity="0.6">
<path fill-rule="evenodd" clip-rule="evenodd" d="M235.78 169.781C239.027 191.779 160.281 206.129 92.5028 196.115C24.7244 186.101 -6.36911 146.995 25.9736 126.159C58.3164 105.322 232.533 147.782 235.78 169.781Z" fill="#DDE3E9"/>
</g>
<path d="M97.2445 25.5941H49.127C47.6403 25.5941 46.4351 26.8003 46.4351 28.2882V124.603C46.4351 126.091 47.6403 127.297 49.127 127.297H97.2445C98.7312 127.297 99.9364 126.091 99.9364 124.603V28.2882C99.9364 26.8003 98.7312 25.5941 97.2445 25.5941Z" fill="#F2F2F2"/>
<path fill-rule="evenodd" clip-rule="evenodd" d="M73.0175 120.899C75.805 120.899 78.0648 118.637 78.0648 115.847C78.0648 113.057 75.805 110.796 73.0175 110.796C70.2301 110.796 67.9702 113.057 67.9702 115.847C67.9702 118.637 70.2301 120.899 73.0175 120.899Z" fill="white"/>
<path fill-rule="evenodd" clip-rule="evenodd" d="M68.6432 32.3294C69.015 32.3294 69.3162 32.0279 69.3162 31.6559C69.3162 31.2839 69.015 30.9824 68.6432 30.9824C68.2714 30.9824 67.9702 31.2839 67.9702 31.6559C67.9702 32.0279 68.2714 32.3294 68.6432 32.3294Z" fill="white"/>
<path d="M77.3919 30.9823H71.6716C71.3 30.9823 70.9987 31.2838 70.9987 31.6558C70.9987 32.0278 71.3 32.3294 71.6716 32.3294H77.3919C77.7636 32.3294 78.0649 32.0278 78.0649 31.6558C78.0649 31.2838 77.7636 30.9823 77.3919 30.9823Z" fill="white"/>
<path d="M93.8797 35.0235H52.4918C51.7485 35.0235 51.1459 35.6266 51.1459 36.3706V51.8617C51.1459 52.6057 51.7485 53.2088 52.4918 53.2088H93.8797C94.623 53.2088 95.2256 52.6057 95.2256 51.8617V36.3706C95.2256 35.6266 94.623 35.0235 93.8797 35.0235Z" fill="white"/>
<path d="M87.8229 40.4791H65.2783C64.7207 40.4791 64.2688 40.9314 64.2688 41.4894V42.1966C64.2688 42.7545 64.7207 43.2069 65.2783 43.2069H87.8229C88.3804 43.2069 88.8323 42.7545 88.8323 42.1966V41.4894C88.8323 40.9314 88.3804 40.4791 87.8229 40.4791Z" fill="#DDE3E9"/>
<path d="M79.7472 45.0253H65.2783C64.7207 45.0253 64.2688 45.4777 64.2688 46.0356V46.7428C64.2688 47.3008 64.7207 47.7531 65.2783 47.7531H79.7472C80.3047 47.7531 80.7566 47.3008 80.7566 46.7428V46.0356C80.7566 45.4777 80.3047 45.0253 79.7472 45.0253Z" fill="#DDE3E9"/>
<path fill-rule="evenodd" clip-rule="evenodd" d="M58.212 48.1573C60.4419 48.1573 62.2499 46.3479 62.2499 44.1161C62.2499 41.8844 60.4419 40.075 58.212 40.075C55.9821 40.075 54.1742 41.8844 54.1742 44.1161C54.1742 46.3479 55.9821 48.1573 58.212 48.1573Z" fill="#C5CFD6"/>
<path d="M93.8797 55.9029H52.4918C51.7485 55.9029 51.1459 56.506 51.1459 57.25V68.7C51.1459 69.4439 51.7485 70.047 52.4918 70.047H93.8797C94.623 70.047 95.2256 69.4439 95.2256 68.7V57.25C95.2256 56.506 94.623 55.9029 93.8797 55.9029Z" fill="white"/>
<path d="M87.8229 60.1461H65.2783C64.7207 60.1461 64.2688 60.5984 64.2688 61.1564V61.2574C64.2688 61.8154 64.7207 62.2677 65.2783 62.2677H87.8229C88.3804 62.2677 88.8323 61.8154 88.8323 61.2574V61.1564C88.8323 60.5984 88.3804 60.1461 87.8229 60.1461Z" fill="#DDE3E9"/>
<path d="M79.7472 63.6821H65.2783C64.7207 63.6821 64.2688 64.1345 64.2688 64.6924V64.7934C64.2688 65.3514 64.7207 65.8037 65.2783 65.8037H79.7472C80.3047 65.8037 80.7566 65.3514 80.7566 64.7934V64.6924C80.7566 64.1345 80.3047 63.6821 79.7472 63.6821Z" fill="#DDE3E9"/>
<path fill-rule="evenodd" clip-rule="evenodd" d="M58.212 67.0161C60.4419 67.0161 62.2499 65.2067 62.2499 62.975C62.2499 60.7432 60.4419 58.9338 58.212 58.9338C55.9821 58.9338 54.1742 60.7432 54.1742 62.975C54.1742 65.2067 55.9821 67.0161 58.212 67.0161Z" fill="#C5CFD6"/>
<path d="M93.8797 72.7411H52.4918C51.7485 72.7411 51.1459 73.3442 51.1459 74.0882V85.5382C51.1459 86.2822 51.7485 86.8853 52.4918 86.8853H93.8797C94.623 86.8853 95.2256 86.2822 95.2256 85.5382V74.0882C95.2256 73.3442 94.623 72.7411 93.8797 72.7411Z" fill="white"/>
<path d="M87.8229 76.9844H65.2783C64.7207 76.9844 64.2688 77.4368 64.2688 77.9947V78.0958C64.2688 78.6537 64.7207 79.106 65.2783 79.106H87.8229C88.3804 79.106 88.8323 78.6537 88.8323 78.0958V77.9947C88.8323 77.4368 88.3804 76.9844 87.8229 76.9844Z" fill="#DDE3E9"/>
<path d="M79.7472 80.5205H65.2783C64.7207 80.5205 64.2688 80.9728 64.2688 81.5308V81.6318C64.2688 82.1898 64.7207 82.6421 65.2783 82.6421H79.7472C80.3047 82.6421 80.7566 82.1898 80.7566 81.6318V81.5308C80.7566 80.9728 80.3047 80.5205 79.7472 80.5205Z" fill="#DDE3E9"/>
<path fill-rule="evenodd" clip-rule="evenodd" d="M58.212 83.8544C60.4419 83.8544 62.2499 82.045 62.2499 79.8133C62.2499 77.5815 60.4419 75.7721 58.212 75.7721C55.9821 75.7721 54.1742 77.5815 54.1742 79.8133C54.1742 82.045 55.9821 83.8544 58.212 83.8544Z" fill="#AFB9C5"/>
<path d="M93.8797 89.5793H52.4918C51.7485 89.5793 51.1459 90.1824 51.1459 90.9264V102.376C51.1459 103.12 51.7485 103.723 52.4918 103.723H93.8797C94.623 103.723 95.2256 103.12 95.2256 102.376V90.9264C95.2256 90.1824 94.623 89.5793 93.8797 89.5793Z" fill="white"/>
<path d="M87.8229 93.8226H65.2783C64.7207 93.8226 64.2688 94.2749 64.2688 94.8329V94.9339C64.2688 95.4919 64.7207 95.9442 65.2783 95.9442H87.8229C88.3804 95.9442 88.8323 95.4919 88.8323 94.9339V94.8329C88.8323 94.2749 88.3804 93.8226 87.8229 93.8226Z" fill="#DDE3E9"/>
<path d="M79.7472 97.3586H65.2783C64.7207 97.3586 64.2688 97.8109 64.2688 98.3689V98.4699C64.2688 99.0279 64.7207 99.4802 65.2783 99.4802H79.7472C80.3047 99.4802 80.7566 99.0279 80.7566 98.4699V98.3689C80.7566 97.8109 80.3047 97.3586 79.7472 97.3586Z" fill="#DDE3E9"/>
<path fill-rule="evenodd" clip-rule="evenodd" d="M58.212 100.693C60.4419 100.693 62.2499 98.8831 62.2499 96.6513C62.2499 94.4196 60.4419 92.6102 58.212 92.6102C55.9821 92.6102 54.1742 94.4196 54.1742 96.6513C54.1742 98.8831 55.9821 100.693 58.212 100.693Z" fill="#C5CFD6"/>
<path fill-rule="evenodd" clip-rule="evenodd" d="M56.5769 107.765C56.131 107.765 55.6865 107.774 55.2414 107.797C54.9019 107.815 54.3833 107.744 54.0963 107.956C53.7978 108.176 53.8184 108.626 53.8651 108.944C54.1114 110.625 54.7127 112.115 55.9709 113.307C57.908 115.14 60.1285 116.072 62.7561 116.487C64.6021 116.779 66.3061 116.374 67.6648 115.06C68.6578 116.904 69.4108 118.945 69.7887 121.005C69.9751 122.021 70.032 123.025 69.9993 124.06C69.9781 124.723 69.9418 125.384 69.8708 126.044C69.8398 126.331 69.6938 126.764 69.8059 127.035C69.9374 127.353 70.3812 127.384 70.5804 127.113C70.7463 126.887 70.716 126.444 70.75 126.177C70.8066 125.733 70.8587 125.289 70.8961 124.843C70.957 124.121 71.0017 123.397 70.9987 122.673C70.991 121.045 70.6292 119.411 70.1346 117.866C69.1857 114.901 67.6463 112.267 65.2518 110.2C63.7794 108.929 62.0943 108.414 60.1827 108.138C58.9922 107.966 57.7825 107.765 56.5769 107.765Z" fill="#89C5CC"/>
<path fill-rule="evenodd" clip-rule="evenodd" d="M63.4516 119.552C58.6402 119.552 55.3998 123.432 53.8678 127.466C53.29 128.986 53.1547 130.656 52.932 132.252C52.8607 132.765 52.8872 133.545 52.6793 134.002C52.6039 134.167 52.431 134.227 52.5137 134.452C52.5639 134.589 52.6618 134.673 52.8095 134.7C53.112 134.755 53.54 134.425 53.7995 134.295C55.9516 133.215 57.3655 131.545 58.519 129.501C59.2344 128.235 59.9598 126.92 60.3845 125.529C60.6439 124.679 60.795 123.785 60.8838 122.904C60.9188 122.557 60.9525 122.201 60.9505 121.852C60.9484 121.506 60.7873 121.323 60.6715 121.021C62.2769 120.413 64.0892 120.247 65.7155 120.877C67.2195 121.46 68.4689 122.587 69.1685 124.002C69.3502 124.37 69.4905 124.758 69.5924 125.154C69.6594 125.413 69.6624 125.749 69.7866 125.984C70.0867 126.552 70.7187 126.172 70.6581 125.643C70.4888 124.168 69.6456 122.687 68.5675 121.661C67.2078 120.367 65.3652 119.552 63.4516 119.552Z" fill="#89C5CC"/>
<path d="M119.453 34.3501H71.3352C69.8485 34.3501 68.6433 35.5563 68.6433 37.0442V133.359C68.6433 134.847 69.8485 136.053 71.3352 136.053H119.453C120.939 136.053 122.145 134.847 122.145 133.359V37.0442C122.145 35.5563 120.939 34.3501 119.453 34.3501Z" fill="#DDE3E9"/>
<path fill-rule="evenodd" clip-rule="evenodd" d="M95.2256 129.655C98.0131 129.655 100.273 127.393 100.273 124.603C100.273 121.813 98.0131 119.552 95.2256 119.552C92.4382 119.552 90.1783 121.813 90.1783 124.603C90.1783 127.393 92.4382 129.655 95.2256 129.655Z" fill="white"/>
<path fill-rule="evenodd" clip-rule="evenodd" d="M90.8513 41.0854C91.2231 41.0854 91.5243 40.784 91.5243 40.4119C91.5243 40.0397 91.2231 39.7383 90.8513 39.7383C90.4795 39.7383 90.1783 40.0397 90.1783 40.4119C90.1783 40.784 90.4795 41.0854 90.8513 41.0854Z" fill="white"/>
<path d="M99.5999 39.7383H93.8796C93.508 39.7383 93.2067 40.0399 93.2067 40.4119C93.2067 40.7839 93.508 41.0854 93.8796 41.0854H99.5999C99.9716 41.0854 100.273 40.7839 100.273 40.4119C100.273 40.0399 99.9716 39.7383 99.5999 39.7383Z" fill="white"/>
<path d="M116.088 43.7795H74.6999C73.9566 43.7795 73.354 44.3826 73.354 45.1265V60.6177C73.354 61.3617 73.9566 61.9648 74.6999 61.9648H116.088C116.831 61.9648 117.434 61.3617 117.434 60.6177V45.1265C117.434 44.3826 116.831 43.7795 116.088 43.7795Z" fill="white"/>
<path d="M99.9365 49.2351H77.3919C76.8344 49.2351 76.3824 49.6874 76.3824 50.2454V50.9526C76.3824 51.5106 76.8344 51.9629 77.3919 51.9629H99.9365C100.494 51.9629 100.946 51.5106 100.946 50.9526V50.2454C100.946 49.6874 100.494 49.2351 99.9365 49.2351Z" fill="#DDE3E9"/>
<path d="M91.8607 53.7814H77.3918C76.8343 53.7814 76.3823 54.2338 76.3823 54.7917V55.4989C76.3823 56.0569 76.8343 56.5092 77.3918 56.5092H91.8607C92.4182 56.5092 92.8702 56.0569 92.8702 55.4989V54.7917C92.8702 54.2338 92.4182 53.7814 91.8607 53.7814Z" fill="#DDE3E9"/>
<path fill-rule="evenodd" clip-rule="evenodd" d="M112.723 55.2295C114.024 55.2295 115.078 54.1741 115.078 52.8722C115.078 51.5703 114.024 50.5148 112.723 50.5148C111.422 50.5148 110.368 51.5703 110.368 52.8722C110.368 54.1741 111.422 55.2295 112.723 55.2295Z" fill="#DDE3E9"/>
<path fill-rule="evenodd" clip-rule="evenodd" d="M112.723 53.8825C113.281 53.8825 113.732 53.4303 113.732 52.8722C113.732 52.3142 113.281 51.8619 112.723 51.8619C112.165 51.8619 111.714 52.3142 111.714 52.8722C111.714 53.4303 112.165 53.8825 112.723 53.8825Z" fill="#F2F2F2"/>
<path d="M116.088 64.6589H74.6999C73.9566 64.6589 73.354 65.262 73.354 66.006V77.456C73.354 78.2 73.9566 78.8031 74.6999 78.8031H116.088C116.831 78.8031 117.434 78.2 117.434 77.456V66.006C117.434 65.262 116.831 64.6589 116.088 64.6589Z" fill="white"/>
<path d="M110.031 68.9022H87.4865C86.929 68.9022 86.4771 69.3545 86.4771 69.9125V70.0135C86.4771 70.5715 86.929 71.0238 87.4865 71.0238H110.031C110.589 71.0238 111.041 70.5715 111.041 70.0135V69.9125C111.041 69.3545 110.589 68.9022 110.031 68.9022Z" fill="#DDE3E9"/>
<path d="M101.955 72.4382H87.4865C86.929 72.4382 86.4771 72.8905 86.4771 73.4485V73.5495C86.4771 74.1075 86.929 74.5598 87.4865 74.5598H101.955C102.513 74.5598 102.965 74.1075 102.965 73.5495V73.4485C102.965 72.8905 102.513 72.4382 101.955 72.4382Z" fill="#DDE3E9"/>
<path fill-rule="evenodd" clip-rule="evenodd" d="M80.4203 75.7722C82.6502 75.7722 84.4581 73.9628 84.4581 71.7311C84.4581 69.4993 82.6502 67.6899 80.4203 67.6899C78.1904 67.6899 76.3824 69.4993 76.3824 71.7311C76.3824 73.9628 78.1904 75.7722 80.4203 75.7722Z" fill="#C5CFD6"/>
<path d="M116.088 81.4972H74.6999C73.9566 81.4972 73.354 82.1003 73.354 82.8443V94.2943C73.354 95.0382 73.9566 95.6413 74.6999 95.6413H116.088C116.831 95.6413 117.434 95.0382 117.434 94.2943V82.8443C117.434 82.1003 116.831 81.4972 116.088 81.4972Z" fill="white"/>
<path d="M99.9365 85.7404H77.3919C76.8344 85.7404 76.3824 86.1927 76.3824 86.7507V86.8517C76.3824 87.4097 76.8344 87.862 77.3919 87.862H99.9365C100.494 87.862 100.946 87.4097 100.946 86.8517V86.7507C100.946 86.1927 100.494 85.7404 99.9365 85.7404Z" fill="#DDE3E9"/>
<path d="M91.8607 89.2764H77.3918C76.8343 89.2764 76.3823 89.7288 76.3823 90.2867V90.3877C76.3823 90.9457 76.8343 91.398 77.3918 91.398H91.8607C92.4182 91.398 92.8702 90.9457 92.8702 90.3877V90.2867C92.8702 89.7288 92.4182 89.2764 91.8607 89.2764Z" fill="#AFB9C5"/>
<path fill-rule="evenodd" clip-rule="evenodd" d="M112.723 90.9266C114.024 90.9266 115.078 89.8711 115.078 88.5692C115.078 87.2673 114.024 86.2119 112.723 86.2119C111.422 86.2119 110.368 87.2673 110.368 88.5692C110.368 89.8711 111.422 90.9266 112.723 90.9266Z" fill="#DDE3E9"/>
<path fill-rule="evenodd" clip-rule="evenodd" d="M112.723 89.5795C113.281 89.5795 113.732 89.1272 113.732 88.5692C113.732 88.0112 113.281 87.5589 112.723 87.5589C112.165 87.5589 111.714 88.0112 111.714 88.5692C111.714 89.1272 112.165 89.5795 112.723 89.5795Z" fill="#F2F2F2"/>
<path d="M116.088 98.3354H74.6999C73.9566 98.3354 73.354 98.9385 73.354 99.6825V111.133C73.354 111.876 73.9566 112.48 74.6999 112.48H116.088C116.831 112.48 117.434 111.876 117.434 111.133V99.6825C117.434 98.9385 116.831 98.3354 116.088 98.3354Z" fill="white"/>
<path d="M110.031 102.579H87.4865C86.929 102.579 86.4771 103.031 86.4771 103.589V103.69C86.4771 104.248 86.929 104.7 87.4865 104.7H110.031C110.589 104.7 111.041 104.248 111.041 103.69V103.589C111.041 103.031 110.589 102.579 110.031 102.579Z" fill="#DDE3E9"/>
<path d="M101.955 106.115H87.4865C86.929 106.115 86.4771 106.567 86.4771 107.125V107.226C86.4771 107.784 86.929 108.236 87.4865 108.236H101.955C102.513 108.236 102.965 107.784 102.965 107.226V107.125C102.965 106.567 102.513 106.115 101.955 106.115Z" fill="#DDE3E9"/>
<path fill-rule="evenodd" clip-rule="evenodd" d="M80.4203 109.449C82.6502 109.449 84.4581 107.639 84.4581 105.408C84.4581 103.176 82.6502 101.366 80.4203 101.366C78.1904 101.366 76.3824 103.176 76.3824 105.408C76.3824 107.639 78.1904 109.449 80.4203 109.449Z" fill="#C5CFD6"/>
<path d="M200.882 42.7691H93.5432C92.0565 42.7691 90.8513 43.9753 90.8513 45.4632V156.596C90.8513 158.084 92.0565 159.29 93.5432 159.29H200.882C202.369 159.29 203.574 158.084 203.574 156.596V45.4632C203.574 43.9753 202.369 42.7691 200.882 42.7691Z" fill="#F2F2F2"/>
<path d="M195.499 57.25H177.328C175.842 57.25 174.636 58.4562 174.636 59.9441V81.8338C174.636 83.3217 175.842 84.5279 177.328 84.5279H195.499C196.985 84.5279 198.191 83.3217 198.191 81.8338V59.9441C198.191 58.4562 196.985 57.25 195.499 57.25Z" fill="white"/>
<path fill-rule="evenodd" clip-rule="evenodd" d="M186.413 73.0779C189.387 73.0779 191.797 70.6657 191.797 67.6897C191.797 64.7137 189.387 62.3015 186.413 62.3015C183.44 62.3015 181.03 64.7137 181.03 67.6897C181.03 70.6657 183.44 73.0779 186.413 73.0779Z" fill="#DDE3E9"/>
<path d="M193.816 74.425H179.011C178.453 74.425 178.001 74.8773 178.001 75.4353C178.001 75.9933 178.453 76.4456 179.011 76.4456H193.816C194.374 76.4456 194.826 75.9933 194.826 75.4353C194.826 74.8773 194.374 74.425 193.816 74.425Z" fill="#DDE3E9"/>
<path d="M191.124 77.7926H181.703C181.145 77.7926 180.693 78.2449 180.693 78.8029C180.693 79.3609 181.145 79.8132 181.703 79.8132H191.124C191.682 79.8132 192.134 79.3609 192.134 78.8029C192.134 78.2449 191.682 77.7926 191.124 77.7926Z" fill="#DDE3E9"/>
<path d="M90.8513 45.4632C90.8513 43.9754 92.0566 42.7691 93.5432 42.7691H200.882C202.369 42.7691 203.574 43.9754 203.574 45.4632V51.8618H90.8513V45.4632Z" fill="#C5CFD6"/>
<path fill-rule="evenodd" clip-rule="evenodd" d="M95.2256 48.8309C95.9689 48.8309 96.5715 48.2278 96.5715 47.4838C96.5715 46.7399 95.9689 46.1368 95.2256 46.1368C94.4823 46.1368 93.8796 46.7399 93.8796 47.4838C93.8796 48.2278 94.4823 48.8309 95.2256 48.8309Z" fill="#F2F2F2"/>
<path fill-rule="evenodd" clip-rule="evenodd" d="M99.2634 48.8309C100.007 48.8309 100.609 48.2278 100.609 47.4838C100.609 46.7399 100.007 46.1368 99.2634 46.1368C98.5201 46.1368 97.9175 46.7399 97.9175 47.4838C97.9175 48.2278 98.5201 48.8309 99.2634 48.8309Z" fill="#F2F2F2"/>
<path fill-rule="evenodd" clip-rule="evenodd" d="M103.301 48.8309C104.045 48.8309 104.647 48.2278 104.647 47.4838C104.647 46.7399 104.045 46.1368 103.301 46.1368C102.558 46.1368 101.955 46.7399 101.955 47.4838C101.955 48.2278 102.558 48.8309 103.301 48.8309Z" fill="#F2F2F2"/>
<path d="M195.499 87.222H177.328C175.842 87.222 174.636 88.4282 174.636 89.9162V149.86C174.636 151.348 175.842 152.554 177.328 152.554H195.499C196.985 152.554 198.191 151.348 198.191 149.86V89.9162C198.191 88.4282 196.985 87.222 195.499 87.222Z" fill="white"/>
<path d="M190.788 93.2838H182.039C181.296 93.2838 180.693 93.8869 180.693 94.6309V100.693C180.693 101.437 181.296 102.04 182.039 102.04H190.788C191.531 102.04 192.134 101.437 192.134 100.693V94.6309C192.134 93.8869 191.531 93.2838 190.788 93.2838Z" fill="#DDE3E9"/>
<path d="M190.788 104.734H182.039C181.296 104.734 180.693 105.337 180.693 106.081V111.806C180.693 112.55 181.296 113.153 182.039 113.153H190.788C191.531 113.153 192.134 112.55 192.134 111.806V106.081C192.134 105.337 191.531 104.734 190.788 104.734Z" fill="#AFB9C5"/>
<path d="M190.788 115.847H182.039C181.296 115.847 180.693 116.45 180.693 117.194V122.919C180.693 123.663 181.296 124.266 182.039 124.266H190.788C191.531 124.266 192.134 123.663 192.134 122.919V117.194C192.134 116.45 191.531 115.847 190.788 115.847Z" fill="#DDE3E9"/>
<path d="M190.788 138.074H182.039C181.296 138.074 180.693 138.677 180.693 139.421V145.146C180.693 145.89 181.296 146.493 182.039 146.493H190.788C191.531 146.493 192.134 145.89 192.134 145.146V139.421C192.134 138.677 191.531 138.074 190.788 138.074Z" fill="#DDE3E9"/>
<path d="M190.788 126.96H182.039C181.296 126.96 180.693 127.563 180.693 128.307V134.032C180.693 134.776 181.296 135.379 182.039 135.379H190.788C191.531 135.379 192.134 134.776 192.134 134.032V128.307C192.134 127.563 191.531 126.96 190.788 126.96Z" fill="#C5CFD6"/>
<path d="M170.599 57.5868H97.5811C96.8377 57.5868 96.2351 58.1899 96.2351 58.9339V72.0677C96.2351 72.8116 96.8377 73.4147 97.5811 73.4147H170.599C171.342 73.4147 171.945 72.8116 171.945 72.0677V58.9339C171.945 58.1899 171.342 57.5868 170.599 57.5868Z" fill="white"/>
<path d="M154.447 62.3352H100.273C99.7155 62.3352 99.2635 62.7875 99.2635 63.3455V63.6991C99.2635 64.2571 99.7155 64.7094 100.273 64.7094H154.447C155.005 64.7094 155.457 64.2571 155.457 63.6991V63.3455C155.457 62.7875 155.005 62.3352 154.447 62.3352Z" fill="#DDE3E9"/>
<path d="M135.973 66.2921H100.273C99.7154 66.2921 99.2634 66.7444 99.2634 67.3024V67.656C99.2634 68.214 99.7154 68.6663 100.273 68.6663H135.973C136.53 68.6663 136.982 68.214 136.982 67.656V67.3024C136.982 66.7444 136.53 66.2921 135.973 66.2921Z" fill="#DDE3E9"/>
<path fill-rule="evenodd" clip-rule="evenodd" d="M163.853 67.8581C165.154 67.8581 166.209 66.8027 166.209 65.5007C166.209 64.1988 165.154 63.1434 163.853 63.1434C162.553 63.1434 161.498 64.1988 161.498 65.5007C161.498 66.8027 162.553 67.8581 163.853 67.8581Z" fill="#DDE3E9"/>
<path fill-rule="evenodd" clip-rule="evenodd" d="M163.853 66.5111C164.411 66.5111 164.863 66.0588 164.863 65.5008C164.863 64.9428 164.411 64.4905 163.853 64.4905C163.296 64.4905 162.844 64.9428 162.844 65.5008C162.844 66.0588 163.296 66.5111 163.853 66.5111Z" fill="#F2F2F2"/>
<path d="M170.599 76.1088H97.5811C96.8377 76.1088 96.2351 76.7119 96.2351 77.4559V87.8956C96.2351 88.6396 96.8377 89.2426 97.5811 89.2426H170.599C171.342 89.2426 171.945 88.6396 171.945 87.8956V77.4559C171.945 76.7119 171.342 76.1088 170.599 76.1088Z" fill="white"/>
<path d="M154.473 80.049H100.248C99.7042 80.049 99.2635 80.49 99.2635 81.034C99.2635 81.578 99.7042 82.019 100.248 82.019H154.473C155.016 82.019 155.457 81.578 155.457 81.034C155.457 80.49 155.016 80.049 154.473 80.049Z" fill="#DDE3E9"/>
<path d="M135.998 83.3324H100.248C99.7041 83.3324 99.2634 83.7734 99.2634 84.3174C99.2634 84.8615 99.7041 85.3025 100.248 85.3025H135.998C136.542 85.3025 136.982 84.8615 136.982 84.3174C136.982 83.7734 136.542 83.3324 135.998 83.3324Z" fill="#DDE3E9"/>
<path fill-rule="evenodd" clip-rule="evenodd" d="M163.853 85.0331C165.154 85.0331 166.209 83.9777 166.209 82.6758C166.209 81.3738 165.154 80.3184 163.853 80.3184C162.553 80.3184 161.498 81.3738 161.498 82.6758C161.498 83.9777 162.553 85.0331 163.853 85.0331Z" fill="#DDE3E9"/>
<path fill-rule="evenodd" clip-rule="evenodd" d="M163.853 83.6861C164.411 83.6861 164.863 83.2338 164.863 82.6758C164.863 82.1178 164.411 81.6655 163.853 81.6655C163.296 81.6655 162.844 82.1178 162.844 82.6758C162.844 83.2338 163.296 83.6861 163.853 83.6861Z" fill="#F2F2F2"/>
<path d="M170.599 91.9368H97.5811C96.8377 91.9368 96.2351 92.5399 96.2351 93.2838V103.724C96.2351 104.467 96.8377 105.071 97.5811 105.071H170.599C171.342 105.071 171.945 104.467 171.945 103.724V93.2838C171.945 92.5399 171.342 91.9368 170.599 91.9368Z" fill="white"/>
<path d="M154.473 95.877H100.248C99.7042 95.877 99.2635 96.318 99.2635 96.862C99.2635 97.406 99.7042 97.847 100.248 97.847H154.473C155.016 97.847 155.457 97.406 155.457 96.862C155.457 96.318 155.016 95.877 154.473 95.877Z" fill="#DDE3E9"/>
<path d="M135.998 99.1604H100.248C99.7041 99.1604 99.2634 99.6014 99.2634 100.145C99.2634 100.689 99.7041 101.13 100.248 101.13H135.998C136.542 101.13 136.982 100.689 136.982 100.145C136.982 99.6014 136.542 99.1604 135.998 99.1604Z" fill="#DDE3E9"/>
<path fill-rule="evenodd" clip-rule="evenodd" d="M163.853 100.861C165.154 100.861 166.209 99.8056 166.209 98.5037C166.209 97.2018 165.154 96.1464 163.853 96.1464C162.553 96.1464 161.498 97.2018 161.498 98.5037C161.498 99.8056 162.553 100.861 163.853 100.861Z" fill="#DDE3E9"/>
<path fill-rule="evenodd" clip-rule="evenodd" d="M163.853 99.5139C164.411 99.5139 164.863 99.0617 164.863 98.5036C164.863 97.9456 164.411 97.4933 163.853 97.4933C163.296 97.4933 162.844 97.9456 162.844 98.5036C162.844 99.0617 163.296 99.5139 163.853 99.5139Z" fill="#AFB9C5"/>
<path d="M170.599 139.421H97.5811C96.8377 139.421 96.2351 140.024 96.2351 140.768V151.207C96.2351 151.951 96.8377 152.554 97.5811 152.554H170.599C171.342 152.554 171.945 151.951 171.945 151.207V140.768C171.945 140.024 171.342 139.421 170.599 139.421Z" fill="white"/>
<path d="M154.473 143.361H100.248C99.7042 143.361 99.2635 143.802 99.2635 144.346C99.2635 144.89 99.7042 145.331 100.248 145.331H154.473C155.016 145.331 155.457 144.89 155.457 144.346C155.457 143.802 155.016 143.361 154.473 143.361Z" fill="#DDE3E9"/>
<path d="M135.998 146.644H100.248C99.7041 146.644 99.2634 147.085 99.2634 147.629C99.2634 148.173 99.7041 148.614 100.248 148.614H135.998C136.542 148.614 136.982 148.173 136.982 147.629C136.982 147.085 136.542 146.644 135.998 146.644Z" fill="#DDE3E9"/>
<path fill-rule="evenodd" clip-rule="evenodd" d="M163.853 148.345C165.154 148.345 166.209 147.289 166.209 145.988C166.209 144.686 165.154 143.63 163.853 143.63C162.553 143.63 161.498 144.686 161.498 145.988C161.498 147.289 162.553 148.345 163.853 148.345Z" fill="#DDE3E9"/>
<path fill-rule="evenodd" clip-rule="evenodd" d="M163.853 146.998C164.411 146.998 164.863 146.546 164.863 145.988C164.863 145.43 164.411 144.977 163.853 144.977C163.296 144.977 162.844 145.43 162.844 145.988C162.844 146.546 163.296 146.998 163.853 146.998Z" fill="#F2F2F2"/>
<path d="M170.599 123.593H97.5811C96.8377 123.593 96.2351 124.196 96.2351 124.94V135.379C96.2351 136.123 96.8377 136.726 97.5811 136.726H170.599C171.342 136.726 171.945 136.123 171.945 135.379V124.94C171.945 124.196 171.342 123.593 170.599 123.593Z" fill="white"/>
<path d="M154.473 127.533H100.248C99.7042 127.533 99.2635 127.974 99.2635 128.518C99.2635 129.062 99.7042 129.503 100.248 129.503H154.473C155.016 129.503 155.457 129.062 155.457 128.518C155.457 127.974 155.016 127.533 154.473 127.533Z" fill="#DDE3E9"/>
<path d="M135.998 130.816H100.248C99.7041 130.816 99.2634 131.257 99.2634 131.801C99.2634 132.345 99.7041 132.786 100.248 132.786H135.998C136.542 132.786 136.982 132.345 136.982 131.801C136.982 131.257 136.542 130.816 135.998 130.816Z" fill="#DDE3E9"/>
<path fill-rule="evenodd" clip-rule="evenodd" d="M163.853 132.517C165.154 132.517 166.209 131.462 166.209 130.16C166.209 128.858 165.154 127.802 163.853 127.802C162.553 127.802 161.498 128.858 161.498 130.16C161.498 131.462 162.553 132.517 163.853 132.517Z" fill="#DDE3E9"/>
<path fill-rule="evenodd" clip-rule="evenodd" d="M163.853 131.17C164.411 131.17 164.863 130.718 164.863 130.16C164.863 129.602 164.411 129.149 163.853 129.149C163.296 129.149 162.844 129.602 162.844 130.16C162.844 130.718 163.296 131.17 163.853 131.17Z" fill="#F2F2F2"/>
<path d="M170.599 107.765H97.5811C96.8377 107.765 96.2351 108.368 96.2351 109.112V119.551C96.2351 120.295 96.8377 120.899 97.5811 120.899H170.599C171.342 120.899 171.945 120.295 171.945 119.551V109.112C171.945 108.368 171.342 107.765 170.599 107.765Z" fill="white"/>
<path d="M154.473 111.705H100.248C99.7042 111.705 99.2635 112.146 99.2635 112.69C99.2635 113.234 99.7042 113.675 100.248 113.675H154.473C155.016 113.675 155.457 113.234 155.457 112.69C155.457 112.146 155.016 111.705 154.473 111.705Z" fill="#DDE3E9"/>
<path d="M135.998 114.988H100.248C99.7041 114.988 99.2634 115.429 99.2634 115.973C99.2634 116.517 99.7041 116.958 100.248 116.958H135.998C136.542 116.958 136.982 116.517 136.982 115.973C136.982 115.429 136.542 114.988 135.998 114.988Z" fill="#DDE3E9"/>
<path fill-rule="evenodd" clip-rule="evenodd" d="M163.853 116.689C165.154 116.689 166.209 115.634 166.209 114.332C166.209 113.03 165.154 111.974 163.853 111.974C162.553 111.974 161.498 113.03 161.498 114.332C161.498 115.634 162.553 116.689 163.853 116.689Z" fill="#DDE3E9"/>
<path fill-rule="evenodd" clip-rule="evenodd" d="M163.853 115.342C164.411 115.342 164.863 114.89 164.863 114.332C164.863 113.774 164.411 113.321 163.853 113.321C163.296 113.321 162.844 113.774 162.844 114.332C162.844 114.89 163.296 115.342 163.853 115.342Z" fill="#F2F2F2"/>
<path fill-rule="evenodd" clip-rule="evenodd" d="M231.498 100.146C230.171 99.2449 228.406 99.0089 226.817 99.0089C220.614 99.0089 214.783 101.312 209.746 104.745C206.986 106.625 204.516 109.02 202.337 111.514C201.078 112.953 199.956 114.51 199.162 116.242C198.626 117.411 198.258 118.629 198.009 119.885C197.705 121.416 197.463 122.978 197.354 124.535C197.311 125.148 196.956 128.4 197.974 128.455C197.968 128.535 197.966 128.611 197.973 128.68C195.762 132.14 194.396 136.194 193.129 140.039C192.027 143.384 191.045 146.757 190.408 150.218C189.568 154.774 189.017 159.4 188.755 164.021C188.699 165.014 188.66 166.008 188.627 167.003C188.598 167.851 188.57 168.699 188.542 169.548C188.511 170.499 188.344 171.593 188.495 172.538C188.626 173.361 189.338 173.237 189.37 172.417C189.408 171.428 189.401 170.437 189.445 169.448C189.502 168.134 189.561 166.82 189.626 165.507C190.073 156.383 191.75 147.394 194.846 138.775C196.099 135.288 197.535 131.987 199.38 128.76C201.002 125.924 202.954 123.177 204.949 120.62C206.887 118.134 208.903 115.707 211.278 113.601C213.206 111.892 215.326 110.403 217.506 109.018C220.274 107.259 223.038 105.542 226.036 104.192C227.595 103.49 229.184 102.862 230.755 102.188C231.037 102.067 231.34 101.949 231.612 101.809C232.519 101.341 232.22 100.636 231.498 100.146Z" fill="#C1DEE2"/>
<path fill-rule="evenodd" clip-rule="evenodd" d="M206.541 132.012C209.057 132.012 211.296 132.339 213.614 133.34C215.615 134.203 217.439 135.347 219.21 136.591C221.7 138.342 223.662 140.38 225.035 143.08C225.855 144.692 226.457 146.975 225.906 148.734C225.257 150.806 223.475 152.534 221.128 152.169C219.677 151.943 218.347 150.982 217.244 150.077C215.924 148.994 214.868 147.693 213.996 146.247C212.573 143.888 211.737 141.223 210.529 138.758C209.955 137.589 209.401 136.411 208.714 135.299C208.374 134.749 208.012 134.204 207.496 133.795C207.22 133.576 206.057 133.197 206.502 132.706C199.977 132.791 194.197 137.806 192.944 144.014C192.828 144.593 192.737 145.176 192.64 145.759C192.58 146.126 192.604 147.482 192.276 147.716C191.552 148.234 191.856 146.661 191.887 146.434C191.968 145.848 192.053 145.263 192.143 144.679C192.632 141.502 194.045 138.549 196.402 136.283C199.097 133.692 202.733 132.012 206.541 132.012Z" fill="#89C5CC"/>
<path fill-rule="evenodd" clip-rule="evenodd" d="M25.2155 124.177C31.4965 134.723 38.812 144.935 43.2052 156.465C43.0282 155.106 42.8404 153.748 42.6301 152.393C41.5157 145.206 40.13 138.071 38.6744 130.946C37.9331 127.318 37.1487 123.703 36.3445 120.088C35.9122 118.147 35.4848 116.204 35.0433 114.265C34.9363 113.795 34.8445 112.974 34.7109 112.143C38.9802 126.165 43.0975 140.197 46.109 154.555C46.5041 156.44 46.8406 158.321 47.1161 160.199C47.2104 159.771 47.3032 159.342 47.4045 158.915C48.6233 153.794 50.4511 148.713 52.6275 143.924C53.6679 141.635 54.8627 139.395 56.2699 137.308C57.1475 136.007 59.2169 134.46 60.017 133.128C55.6397 141.164 54.0589 151.218 51.5312 159.954C50.9144 162.086 50.2936 164.215 49.6852 166.347C53.4969 158.696 59.411 152.41 67.6337 149.686C57.6805 156.268 51.7105 167.794 47.6875 179.583C47.6744 179.723 47.6586 179.863 47.6448 180.003C48.8289 177.754 50.3198 175.72 52.3408 174.296C56.6666 171.246 61.4649 172.135 65.6609 174.751C62.3677 172.656 56.4163 174.563 53.6453 176.693C51.6617 178.217 49.9665 180.262 48.4944 182.257C48.1418 182.735 47.6602 183.293 47.1518 183.888C46.4391 188.519 45.2776 193.118 43.6328 197.681C43.9044 196.371 43.7082 194.277 43.7836 193.301C43.7917 193.195 43.7984 193.089 43.8065 192.984C43.5565 193.983 43.3149 194.97 43.0823 195.942C43.5447 194.088 43.7957 192.152 43.9919 190.197C44.0423 189.356 44.0918 188.516 44.1436 187.676C44.1271 186.08 44.0615 184.479 43.9505 182.875C43.5571 181.317 43.1163 179.846 42.7526 178.624C41.4413 174.212 39.5183 169.985 37.1518 166.042C34.9925 162.444 32.4078 159.185 29.424 156.237C27.8154 154.648 26.132 153.135 24.4723 151.601C23.8721 151.047 22.7993 149.683 21.8716 148.972C28.6284 152.701 35.5831 156.734 40.5123 162.741C39.9342 160.52 39.3066 158.33 38.6427 156.185C35.2742 145.298 31.0211 134.017 25.2155 124.177Z" fill="#DDE3E9"/>
<path fill-rule="evenodd" clip-rule="evenodd" d="M31.9662 183.873C31.9662 195.963 32.9228 205.763 45.7621 205.763C58.6014 205.763 59.5581 195.963 59.5581 183.873" fill="#C5CFD6"/>
<path d="M176.992 29.2986C176.992 28.7406 176.54 28.2883 175.982 28.2883C175.425 28.2883 174.973 28.7406 174.973 29.2986V35.6971C174.973 36.2551 175.425 36.7074 175.982 36.7074C176.54 36.7074 176.992 36.2551 176.992 35.6971V29.2986Z" fill="#DDE3E9"/>
<path d="M181.703 23.9103C181.703 23.3523 181.251 22.9 180.693 22.9C180.136 22.9 179.684 23.3523 179.684 23.9103V35.6971C179.684 36.2551 180.136 36.7074 180.693 36.7074C181.251 36.7074 181.703 36.2551 181.703 35.6971V23.9103Z" fill="#DDE3E9"/>
<path d="M186.413 21.2162C186.413 20.6582 185.961 20.2059 185.404 20.2059C184.846 20.2059 184.395 20.6582 184.395 21.2162V35.697C184.395 36.255 184.846 36.7073 185.404 36.7073C185.961 36.7073 186.413 36.255 186.413 35.697V21.2162Z" fill="#DDE3E9"/>
<path d="M191.124 23.9103C191.124 23.3523 190.672 22.9 190.115 22.9C189.557 22.9 189.105 23.3523 189.105 23.9103V35.6971C189.105 36.2551 189.557 36.7074 190.115 36.7074C190.672 36.7074 191.124 36.2551 191.124 35.6971V23.9103Z" fill="#DDE3E9"/>
<path d="M195.835 18.5221C195.835 17.9641 195.383 17.5118 194.826 17.5118C194.268 17.5118 193.816 17.9641 193.816 18.5221V35.6971C193.816 36.255 194.268 36.7074 194.826 36.7074C195.383 36.7074 195.835 36.255 195.835 35.6971V18.5221Z" fill="#C5CFD6"/>
<path fill-rule="evenodd" clip-rule="evenodd" d="M9.42151 120.648C9.42151 116.897 12.4506 113.826 16.1512 113.826V120.648L11.5521 125.613C10.2439 124.399 9.42151 122.618 9.42151 120.648Z" fill="#F2F2F2"/>
<path fill-rule="evenodd" clip-rule="evenodd" d="M15.9732 120.562H22.7693C22.7693 122.32 22.0526 123.968 20.9197 125.165C19.6736 126.474 17.8992 127.297 15.9732 127.297C14.1991 127.297 12.5751 126.587 11.3287 125.464L15.9732 120.562Z" fill="#AFB9C5"/>
<path fill-rule="evenodd" clip-rule="evenodd" d="M22.881 120.562C22.881 116.858 19.8519 113.826 16.1512 113.826V120.562H22.881ZM12.7864 113.826L15.4783 119.888L9.42151 117.194C10.0205 115.623 11.3654 114.426 12.7864 113.826Z" fill="#C5CFD6"/>
<path fill-rule="evenodd" clip-rule="evenodd" d="M228.395 123.653C227.749 124.34 226.833 124.771 225.814 124.771C223.857 124.771 222.27 123.188 222.27 121.235C222.27 119.282 223.857 117.699 225.814 117.699V111.132C220.246 111.132 215.688 115.68 215.688 121.235C215.688 126.791 220.246 131.338 225.814 131.338C228.739 131.338 231.383 130.104 233.185 128.14L228.395 123.653Z" fill="#F2F2F2"/>
<path fill-rule="evenodd" clip-rule="evenodd" d="M225.782 111.132V117.699C227.734 117.699 229.315 119.282 229.315 121.235H235.877C235.877 115.68 231.333 111.132 225.782 111.132Z" fill="#AFB9C5"/>
<path fill-rule="evenodd" clip-rule="evenodd" d="M229.18 121.235C229.18 122.383 228.64 123.402 227.801 124.061L231.927 129.318C234.329 127.436 235.877 124.518 235.877 121.235H229.18Z" fill="#C5CFD6"/>
<path fill-rule="evenodd" clip-rule="evenodd" d="M164.223 30.8153C163.725 31.342 163.021 31.6727 162.237 31.6727C160.731 31.6727 159.511 30.459 159.511 28.9618C159.511 27.4646 160.731 26.2508 162.237 26.2508V21.2162C157.953 21.2162 154.447 24.7025 154.447 28.9618C154.447 33.2211 157.953 36.7074 162.237 36.7074C164.487 36.7074 166.52 35.7607 167.907 34.255L164.223 30.8153Z" fill="#F2F2F2"/>
<path fill-rule="evenodd" clip-rule="evenodd" d="M162.186 21.2161V26.2508C163.682 26.2508 164.895 27.4645 164.895 28.9617H169.926C169.926 24.7024 166.442 21.2161 162.186 21.2161Z" fill="#AFB9C5"/>
<path fill-rule="evenodd" clip-rule="evenodd" d="M164.903 28.9617C164.903 29.8222 164.498 30.5872 163.869 31.081L166.963 35.0235C168.765 33.612 169.926 31.4242 169.926 28.9617H164.903Z" fill="#C5CFD6"/>
<path fill-rule="evenodd" clip-rule="evenodd" d="M41.7268 36.7027C41.7253 36.7063 41.7239 36.7098 41.7218 36.7141C41.7239 36.7105 41.7268 36.6964 41.7268 36.7027Z" fill="#C5CFD6"/>
<path fill-rule="evenodd" clip-rule="evenodd" d="M41.7236 36.708C41.7236 36.7087 41.7229 36.7101 41.7229 36.7115C41.7229 36.708 41.7292 36.6974 41.7236 36.708Z" fill="#C5CFD6"/>
<path fill-rule="evenodd" clip-rule="evenodd" d="M41.7467 36.6508C41.742 36.6643 41.736 36.6771 41.7306 36.6906C41.7333 36.6838 41.736 36.6784 41.7386 36.6717C41.6687 36.8468 41.7131 36.733 41.7467 36.6508Z" fill="#C5CFD6"/>
<path fill-rule="evenodd" clip-rule="evenodd" d="M41.7321 36.6916C41.7293 36.6978 41.7265 36.7048 41.7238 36.711C41.7036 36.7499 41.7321 36.6916 41.7321 36.6916Z" fill="#C5CFD6"/>
<path fill-rule="evenodd" clip-rule="evenodd" d="M41.7208 36.7131C41.7403 36.6812 41.7167 36.7215 41.7208 36.7131V36.7131Z" fill="#C5CFD6"/>
<path fill-rule="evenodd" clip-rule="evenodd" d="M41.7235 36.7086L41.7254 36.7067C41.7244 36.7077 41.7244 36.7086 41.7235 36.7086Z" fill="#C5CFD6"/>
<path d="M56.1931 19.1956H26.9188C26.1755 19.1956 25.5729 19.7987 25.5729 20.5427V39.0647C25.5729 39.8087 26.1755 40.4118 26.9188 40.4118H56.1931C56.9365 40.4118 57.5391 39.8087 57.5391 39.0647V20.5427C57.5391 19.7987 56.9365 19.1956 56.1931 19.1956Z" fill="#DDE3E9"/>
<path fill-rule="evenodd" clip-rule="evenodd" d="M37.6864 25.2574L28.2648 40.4118H47.108L37.6864 25.2574Z" fill="#AFB9C5"/>
<path fill-rule="evenodd" clip-rule="evenodd" d="M46.9398 29.2986L38.6959 40.4118H55.1838L46.9398 29.2986Z" fill="#C5CFD6"/>
<path fill-rule="evenodd" clip-rule="evenodd" d="M50.4728 29.2985C52.1455 29.2985 53.5012 27.9416 53.5012 26.2676C53.5012 24.5937 52.1455 23.2368 50.4728 23.2368C48.8002 23.2368 47.4445 24.5937 47.4445 26.2676C47.4445 27.9416 48.8002 29.2985 50.4728 29.2985Z" fill="white"/>
<path fill-rule="evenodd" clip-rule="evenodd" d="M202.226 180.501C202.227 180.505 202.229 180.508 202.231 180.513C202.229 180.509 202.226 180.495 202.226 180.501Z" fill="#C5CFD6"/>
<path fill-rule="evenodd" clip-rule="evenodd" d="M202.229 180.506C202.229 180.507 202.23 180.509 202.23 180.51C202.23 180.506 202.223 180.496 202.229 180.506Z" fill="#C5CFD6"/>
<path fill-rule="evenodd" clip-rule="evenodd" d="M202.206 180.449C202.211 180.463 202.217 180.476 202.222 180.489C202.219 180.482 202.217 180.477 202.214 180.47C202.284 180.645 202.239 180.531 202.206 180.449Z" fill="#C5CFD6"/>
<path fill-rule="evenodd" clip-rule="evenodd" d="M202.221 180.49C202.224 180.496 202.226 180.503 202.229 180.51C202.249 180.548 202.221 180.49 202.221 180.49Z" fill="#C5CFD6"/>
<path fill-rule="evenodd" clip-rule="evenodd" d="M202.232 180.512C202.212 180.48 202.236 180.52 202.232 180.512V180.512Z" fill="#C5CFD6"/>
<path fill-rule="evenodd" clip-rule="evenodd" d="M202.23 180.507L202.228 180.505C202.229 180.506 202.229 180.507 202.23 180.507Z" fill="#C5CFD6"/>
<path d="M179.684 154.575H224.773C225.516 154.575 226.119 155.178 226.119 155.922V184.884C226.119 185.628 225.516 186.231 224.773 186.231H179.684C178.94 186.231 178.338 185.628 178.338 184.884V155.922C178.338 155.178 178.94 154.575 179.684 154.575Z" fill="#DDE3E9"/>
<path fill-rule="evenodd" clip-rule="evenodd" d="M208.377 163.668L222.192 186.231H194.563L208.377 163.668Z" fill="#AFB9C5"/>
<path fill-rule="evenodd" clip-rule="evenodd" d="M194.134 169.712L206.346 186.231H181.921L194.134 169.712Z" fill="#C5CFD6"/>
<path fill-rule="evenodd" clip-rule="evenodd" d="M188.937 169.729C186.428 169.729 184.395 167.694 184.395 165.183C184.395 162.672 186.428 160.637 188.937 160.637C191.446 160.637 193.48 162.672 193.48 165.183C193.48 167.694 191.446 169.729 188.937 169.729Z" fill="white"/>
</svg>
