<svg width="163" height="29" viewBox="0 0 163 29" fill="none" xmlns="http://www.w3.org/2000/svg">
<path d="M29.25 25H28.34L24.68 19.45V25H23.77V18.02H24.68L28.34 23.56V18.02H29.25V25ZM35.8013 22.05C35.8013 22.2233 35.7913 22.4067 35.7713 22.6H31.3913C31.4246 23.14 31.6079 23.5633 31.9413 23.87C32.2813 24.17 32.6913 24.32 33.1713 24.32C33.5646 24.32 33.8913 24.23 34.1513 24.05C34.4179 23.8633 34.6046 23.6167 34.7113 23.31H35.6913C35.5446 23.8367 35.2513 24.2667 34.8113 24.6C34.3713 24.9267 33.8246 25.09 33.1713 25.09C32.6513 25.09 32.1846 24.9733 31.7713 24.74C31.3646 24.5067 31.0446 24.1767 30.8113 23.75C30.5779 23.3167 30.4613 22.8167 30.4613 22.25C30.4613 21.6833 30.5746 21.1867 30.8013 20.76C31.0279 20.3333 31.3446 20.0067 31.7513 19.78C32.1646 19.5467 32.6379 19.43 33.1713 19.43C33.6913 19.43 34.1513 19.5433 34.5513 19.77C34.9513 19.9967 35.2579 20.31 35.4713 20.71C35.6913 21.1033 35.8013 21.55 35.8013 22.05ZM34.8613 21.86C34.8613 21.5133 34.7846 21.2167 34.6313 20.97C34.4779 20.7167 34.2679 20.5267 34.0013 20.4C33.7413 20.2667 33.4513 20.2 33.1313 20.2C32.6713 20.2 32.2779 20.3467 31.9513 20.64C31.6313 20.9333 31.4479 21.34 31.4013 21.86H34.8613ZM44.3024 19.52L42.5924 25H41.6524L40.3324 20.65L39.0124 25H38.0724L36.3524 19.52H37.2824L38.5424 24.12L39.9024 19.52H40.8324L42.1624 24.13L43.4024 19.52H44.3024ZM46.3155 20.27V23.5C46.3155 23.7667 46.3722 23.9567 46.4855 24.07C46.5989 24.1767 46.7955 24.23 47.0755 24.23H47.7455V25H46.9255C46.4189 25 46.0389 24.8833 45.7855 24.65C45.5322 24.4167 45.4055 24.0333 45.4055 23.5V20.27H44.6955V19.52H45.4055V18.14H46.3155V19.52H47.7455V20.27H46.3155ZM51.2381 25.09C50.7248 25.09 50.2581 24.9733 49.8381 24.74C49.4248 24.5067 49.0981 24.1767 48.8581 23.75C48.6248 23.3167 48.5081 22.8167 48.5081 22.25C48.5081 21.69 48.6281 21.1967 48.8681 20.77C49.1148 20.3367 49.4481 20.0067 49.8681 19.78C50.2881 19.5467 50.7581 19.43 51.2781 19.43C51.7981 19.43 52.2681 19.5467 52.6881 19.78C53.1081 20.0067 53.4381 20.3333 53.6781 20.76C53.9248 21.1867 54.0481 21.6833 54.0481 22.25C54.0481 22.8167 53.9215 23.3167 53.6681 23.75C53.4215 24.1767 53.0848 24.5067 52.6581 24.74C52.2315 24.9733 51.7581 25.09 51.2381 25.09ZM51.2381 24.29C51.5648 24.29 51.8715 24.2133 52.1581 24.06C52.4448 23.9067 52.6748 23.6767 52.8481 23.37C53.0281 23.0633 53.1181 22.69 53.1181 22.25C53.1181 21.81 53.0315 21.4367 52.8581 21.13C52.6848 20.8233 52.4581 20.5967 52.1781 20.45C51.8981 20.2967 51.5948 20.22 51.2681 20.22C50.9348 20.22 50.6281 20.2967 50.3481 20.45C50.0748 20.5967 49.8548 20.8233 49.6881 21.13C49.5215 21.4367 49.4381 21.81 49.4381 22.25C49.4381 22.6967 49.5181 23.0733 49.6781 23.38C49.8448 23.6867 50.0648 23.9167 50.3381 24.07C50.6115 24.2167 50.9115 24.29 51.2381 24.29ZM57.9146 19.42C58.5813 19.42 59.1213 19.6233 59.5346 20.03C59.9479 20.43 60.1546 21.01 60.1546 21.77V25H59.2546V21.9C59.2546 21.3533 59.1179 20.9367 58.8446 20.65C58.5713 20.3567 58.1979 20.21 57.7246 20.21C57.2446 20.21 56.8613 20.36 56.5746 20.66C56.2946 20.96 56.1546 21.3967 56.1546 21.97V25H55.2446V19.52H56.1546V20.3C56.3346 20.02 56.5779 19.8033 56.8846 19.65C57.1979 19.4967 57.5413 19.42 57.9146 19.42ZM66.5171 25.07C66.0571 25.07 65.6438 24.99 65.2771 24.83C64.9171 24.6633 64.6338 24.4367 64.4271 24.15C64.2204 23.8567 64.1138 23.52 64.1071 23.14H65.0771C65.1104 23.4667 65.2438 23.7433 65.4771 23.97C65.7171 24.19 66.0638 24.3 66.5171 24.3C66.9504 24.3 67.2904 24.1933 67.5371 23.98C67.7904 23.76 67.9171 23.48 67.9171 23.14C67.9171 22.8733 67.8438 22.6567 67.6971 22.49C67.5504 22.3233 67.3671 22.1967 67.1471 22.11C66.9271 22.0233 66.6304 21.93 66.2571 21.83C65.7971 21.71 65.4271 21.59 65.1471 21.47C64.8738 21.35 64.6371 21.1633 64.4371 20.91C64.2438 20.65 64.1471 20.3033 64.1471 19.87C64.1471 19.49 64.2438 19.1533 64.4371 18.86C64.6304 18.5667 64.9004 18.34 65.2471 18.18C65.6004 18.02 66.0038 17.94 66.4571 17.94C67.1104 17.94 67.6438 18.1033 68.0571 18.43C68.4771 18.7567 68.7138 19.19 68.7671 19.73H67.7671C67.7338 19.4633 67.5938 19.23 67.3471 19.03C67.1004 18.8233 66.7738 18.72 66.3671 18.72C65.9871 18.72 65.6771 18.82 65.4371 19.02C65.1971 19.2133 65.0771 19.4867 65.0771 19.84C65.0771 20.0933 65.1471 20.3 65.2871 20.46C65.4338 20.62 65.6104 20.7433 65.8171 20.83C66.0304 20.91 66.3271 21.0033 66.7071 21.11C67.1671 21.2367 67.5371 21.3633 67.8171 21.49C68.0971 21.61 68.3371 21.8 68.5371 22.06C68.7371 22.3133 68.8371 22.66 68.8371 23.1C68.8371 23.44 68.7471 23.76 68.5671 24.06C68.3871 24.36 68.1204 24.6033 67.7671 24.79C67.4138 24.9767 66.9971 25.07 66.5171 25.07ZM69.8363 22.25C69.8363 21.6833 69.9496 21.19 70.1763 20.77C70.4029 20.3433 70.7163 20.0133 71.1163 19.78C71.5229 19.5467 71.9863 19.43 72.5063 19.43C73.1796 19.43 73.7329 19.5933 74.1663 19.92C74.6063 20.2467 74.8963 20.7 75.0363 21.28H74.0563C73.9629 20.9467 73.7796 20.6833 73.5063 20.49C73.2396 20.2967 72.9063 20.2 72.5063 20.2C71.9863 20.2 71.5663 20.38 71.2463 20.74C70.9263 21.0933 70.7663 21.5967 70.7663 22.25C70.7663 22.91 70.9263 23.42 71.2463 23.78C71.5663 24.14 71.9863 24.32 72.5063 24.32C72.9063 24.32 73.2396 24.2267 73.5063 24.04C73.7729 23.8533 73.9563 23.5867 74.0563 23.24H75.0363C74.8896 23.8 74.5963 24.25 74.1563 24.59C73.7163 24.9233 73.1663 25.09 72.5063 25.09C71.9863 25.09 71.5229 24.9733 71.1163 24.74C70.7163 24.5067 70.4029 24.1767 70.1763 23.75C69.9496 23.3233 69.8363 22.8233 69.8363 22.25ZM78.9705 19.42C79.3838 19.42 79.7571 19.51 80.0905 19.69C80.4238 19.8633 80.6838 20.1267 80.8705 20.48C81.0638 20.8333 81.1605 21.2633 81.1605 21.77V25H80.2605V21.9C80.2605 21.3533 80.1238 20.9367 79.8505 20.65C79.5771 20.3567 79.2038 20.21 78.7305 20.21C78.2505 20.21 77.8671 20.36 77.5805 20.66C77.3005 20.96 77.1605 21.3967 77.1605 21.97V25H76.2505V17.6H77.1605V20.3C77.3405 20.02 77.5871 19.8033 77.9005 19.65C78.2205 19.4967 78.5771 19.42 78.9705 19.42ZM85.037 25.09C84.5236 25.09 84.057 24.9733 83.637 24.74C83.2236 24.5067 82.897 24.1767 82.657 23.75C82.4236 23.3167 82.307 22.8167 82.307 22.25C82.307 21.69 82.427 21.1967 82.667 20.77C82.9136 20.3367 83.247 20.0067 83.667 19.78C84.087 19.5467 84.557 19.43 85.077 19.43C85.597 19.43 86.067 19.5467 86.487 19.78C86.907 20.0067 87.237 20.3333 87.477 20.76C87.7236 21.1867 87.847 21.6833 87.847 22.25C87.847 22.8167 87.7203 23.3167 87.467 23.75C87.2203 24.1767 86.8836 24.5067 86.457 24.74C86.0303 24.9733 85.557 25.09 85.037 25.09ZM85.037 24.29C85.3636 24.29 85.6703 24.2133 85.957 24.06C86.2436 23.9067 86.4736 23.6767 86.647 23.37C86.827 23.0633 86.917 22.69 86.917 22.25C86.917 21.81 86.8303 21.4367 86.657 21.13C86.4836 20.8233 86.257 20.5967 85.977 20.45C85.697 20.2967 85.3936 20.22 85.067 20.22C84.7336 20.22 84.427 20.2967 84.147 20.45C83.8736 20.5967 83.6536 20.8233 83.487 21.13C83.3203 21.4367 83.237 21.81 83.237 22.25C83.237 22.6967 83.317 23.0733 83.477 23.38C83.6436 23.6867 83.8636 23.9167 84.137 24.07C84.4103 24.2167 84.7103 24.29 85.037 24.29ZM91.4334 25.09C90.9201 25.09 90.4534 24.9733 90.0334 24.74C89.6201 24.5067 89.2934 24.1767 89.0534 23.75C88.8201 23.3167 88.7034 22.8167 88.7034 22.25C88.7034 21.69 88.8234 21.1967 89.0634 20.77C89.3101 20.3367 89.6434 20.0067 90.0634 19.78C90.4834 19.5467 90.9534 19.43 91.4734 19.43C91.9934 19.43 92.4634 19.5467 92.8834 19.78C93.3034 20.0067 93.6334 20.3333 93.8734 20.76C94.1201 21.1867 94.2434 21.6833 94.2434 22.25C94.2434 22.8167 94.1168 23.3167 93.8634 23.75C93.6168 24.1767 93.2801 24.5067 92.8534 24.74C92.4268 24.9733 91.9534 25.09 91.4334 25.09ZM91.4334 24.29C91.7601 24.29 92.0668 24.2133 92.3534 24.06C92.6401 23.9067 92.8701 23.6767 93.0434 23.37C93.2234 23.0633 93.3134 22.69 93.3134 22.25C93.3134 21.81 93.2268 21.4367 93.0534 21.13C92.8801 20.8233 92.6534 20.5967 92.3734 20.45C92.0934 20.2967 91.7901 20.22 91.4634 20.22C91.1301 20.22 90.8234 20.2967 90.5434 20.45C90.2701 20.5967 90.0501 20.8233 89.8834 21.13C89.7168 21.4367 89.6334 21.81 89.6334 22.25C89.6334 22.6967 89.7134 23.0733 89.8734 23.38C90.0401 23.6867 90.2601 23.9167 90.5334 24.07C90.8068 24.2167 91.1068 24.29 91.4334 24.29ZM96.3499 17.6V25H95.4399V17.6H96.3499ZM100.227 21.51C100.227 20.83 100.38 20.22 100.687 19.68C100.994 19.1333 101.41 18.7067 101.937 18.4C102.47 18.0933 103.06 17.94 103.707 17.94C104.467 17.94 105.13 18.1233 105.697 18.49C106.264 18.8567 106.677 19.3767 106.937 20.05H105.847C105.654 19.63 105.374 19.3067 105.007 19.08C104.647 18.8533 104.214 18.74 103.707 18.74C103.22 18.74 102.784 18.8533 102.397 19.08C102.01 19.3067 101.707 19.63 101.487 20.05C101.267 20.4633 101.157 20.95 101.157 21.51C101.157 22.0633 101.267 22.55 101.487 22.97C101.707 23.3833 102.01 23.7033 102.397 23.93C102.784 24.1567 103.22 24.27 103.707 24.27C104.214 24.27 104.647 24.16 105.007 23.94C105.374 23.7133 105.654 23.39 105.847 22.97H106.937C106.677 23.6367 106.264 24.1533 105.697 24.52C105.13 24.88 104.467 25.06 103.707 25.06C103.06 25.06 102.47 24.91 101.937 24.61C101.41 24.3033 100.994 23.88 100.687 23.34C100.38 22.8 100.227 22.19 100.227 21.51ZM110.681 25.09C110.168 25.09 109.701 24.9733 109.281 24.74C108.868 24.5067 108.541 24.1767 108.301 23.75C108.068 23.3167 107.951 22.8167 107.951 22.25C107.951 21.69 108.071 21.1967 108.311 20.77C108.558 20.3367 108.891 20.0067 109.311 19.78C109.731 19.5467 110.201 19.43 110.721 19.43C111.241 19.43 111.711 19.5467 112.131 19.78C112.551 20.0067 112.881 20.3333 113.121 20.76C113.368 21.1867 113.491 21.6833 113.491 22.25C113.491 22.8167 113.365 23.3167 113.111 23.75C112.865 24.1767 112.528 24.5067 112.101 24.74C111.675 24.9733 111.201 25.09 110.681 25.09ZM110.681 24.29C111.008 24.29 111.315 24.2133 111.601 24.06C111.888 23.9067 112.118 23.6767 112.291 23.37C112.471 23.0633 112.561 22.69 112.561 22.25C112.561 21.81 112.475 21.4367 112.301 21.13C112.128 20.8233 111.901 20.5967 111.621 20.45C111.341 20.2967 111.038 20.22 110.711 20.22C110.378 20.22 110.071 20.2967 109.791 20.45C109.518 20.5967 109.298 20.8233 109.131 21.13C108.965 21.4367 108.881 21.81 108.881 22.25C108.881 22.6967 108.961 23.0733 109.121 23.38C109.288 23.6867 109.508 23.9167 109.781 24.07C110.055 24.2167 110.355 24.29 110.681 24.29ZM114.348 22.24C114.348 21.68 114.461 21.19 114.688 20.77C114.915 20.3433 115.225 20.0133 115.618 19.78C116.018 19.5467 116.465 19.43 116.958 19.43C117.385 19.43 117.781 19.53 118.148 19.73C118.515 19.9233 118.795 20.18 118.988 20.5V17.6H119.908V25H118.988V23.97C118.808 24.2967 118.541 24.5667 118.188 24.78C117.835 24.9867 117.421 25.09 116.948 25.09C116.461 25.09 116.018 24.97 115.618 24.73C115.225 24.49 114.915 24.1533 114.688 23.72C114.461 23.2867 114.348 22.7933 114.348 22.24ZM118.988 22.25C118.988 21.8367 118.905 21.4767 118.738 21.17C118.571 20.8633 118.345 20.63 118.058 20.47C117.778 20.3033 117.468 20.22 117.128 20.22C116.788 20.22 116.478 20.3 116.198 20.46C115.918 20.62 115.695 20.8533 115.528 21.16C115.361 21.4667 115.278 21.8267 115.278 22.24C115.278 22.66 115.361 23.0267 115.528 23.34C115.695 23.6467 115.918 23.8833 116.198 24.05C116.478 24.21 116.788 24.29 117.128 24.29C117.468 24.29 117.778 24.21 118.058 24.05C118.345 23.8833 118.571 23.6467 118.738 23.34C118.905 23.0267 118.988 22.6633 118.988 22.25ZM121.916 18.63C121.742 18.63 121.596 18.57 121.476 18.45C121.356 18.33 121.296 18.1833 121.296 18.01C121.296 17.8367 121.356 17.69 121.476 17.57C121.596 17.45 121.742 17.39 121.916 17.39C122.082 17.39 122.222 17.45 122.336 17.57C122.456 17.69 122.516 17.8367 122.516 18.01C122.516 18.1833 122.456 18.33 122.336 18.45C122.222 18.57 122.082 18.63 121.916 18.63ZM122.356 19.52V25H121.446V19.52H122.356ZM126.577 19.42C127.243 19.42 127.783 19.6233 128.197 20.03C128.61 20.43 128.817 21.01 128.817 21.77V25H127.917V21.9C127.917 21.3533 127.78 20.9367 127.507 20.65C127.233 20.3567 126.86 20.21 126.387 20.21C125.907 20.21 125.523 20.36 125.237 20.66C124.957 20.96 124.817 21.3967 124.817 21.97V25H123.907V19.52H124.817V20.3C124.997 20.02 125.24 19.8033 125.547 19.65C125.86 19.4967 126.203 19.42 126.577 19.42ZM132.563 19.43C133.037 19.43 133.45 19.5333 133.803 19.74C134.163 19.9467 134.43 20.2067 134.603 20.52V19.52H135.523V25.12C135.523 25.62 135.417 26.0633 135.203 26.45C134.99 26.8433 134.683 27.15 134.283 27.37C133.89 27.59 133.43 27.7 132.903 27.7C132.183 27.7 131.583 27.53 131.103 27.19C130.623 26.85 130.34 26.3867 130.253 25.8H131.153C131.253 26.1333 131.46 26.4 131.773 26.6C132.087 26.8067 132.463 26.91 132.903 26.91C133.403 26.91 133.81 26.7533 134.123 26.44C134.443 26.1267 134.603 25.6867 134.603 25.12V23.97C134.423 24.29 134.157 24.5567 133.803 24.77C133.45 24.9833 133.037 25.09 132.563 25.09C132.077 25.09 131.633 24.97 131.233 24.73C130.84 24.49 130.53 24.1533 130.303 23.72C130.077 23.2867 129.963 22.7933 129.963 22.24C129.963 21.68 130.077 21.19 130.303 20.77C130.53 20.3433 130.84 20.0133 131.233 19.78C131.633 19.5467 132.077 19.43 132.563 19.43ZM134.603 22.25C134.603 21.8367 134.52 21.4767 134.353 21.17C134.187 20.8633 133.96 20.63 133.673 20.47C133.393 20.3033 133.083 20.22 132.743 20.22C132.403 20.22 132.093 20.3 131.813 20.46C131.533 20.62 131.31 20.8533 131.143 21.16C130.977 21.4667 130.893 21.8267 130.893 22.24C130.893 22.66 130.977 23.0267 131.143 23.34C131.31 23.6467 131.533 23.8833 131.813 24.05C132.093 24.21 132.403 24.29 132.743 24.29C133.083 24.29 133.393 24.21 133.673 24.05C133.96 23.8833 134.187 23.6467 134.353 23.34C134.52 23.0267 134.603 22.6633 134.603 22.25ZM139.387 21.51C139.387 20.83 139.54 20.22 139.847 19.68C140.154 19.1333 140.57 18.7067 141.097 18.4C141.63 18.0933 142.22 17.94 142.867 17.94C143.627 17.94 144.29 18.1233 144.857 18.49C145.424 18.8567 145.837 19.3767 146.097 20.05H145.007C144.814 19.63 144.534 19.3067 144.167 19.08C143.807 18.8533 143.374 18.74 142.867 18.74C142.38 18.74 141.944 18.8533 141.557 19.08C141.17 19.3067 140.867 19.63 140.647 20.05C140.427 20.4633 140.317 20.95 140.317 21.51C140.317 22.0633 140.427 22.55 140.647 22.97C140.867 23.3833 141.17 23.7033 141.557 23.93C141.944 24.1567 142.38 24.27 142.867 24.27C143.374 24.27 143.807 24.16 144.167 23.94C144.534 23.7133 144.814 23.39 145.007 22.97H146.097C145.837 23.6367 145.424 24.1533 144.857 24.52C144.29 24.88 143.627 25.06 142.867 25.06C142.22 25.06 141.63 24.91 141.097 24.61C140.57 24.3033 140.154 23.88 139.847 23.34C139.54 22.8 139.387 22.19 139.387 21.51ZM148.362 17.6V25H147.452V17.6H148.362ZM154.773 19.52V25H153.863V24.19C153.689 24.47 153.446 24.69 153.133 24.85C152.826 25.0033 152.486 25.08 152.113 25.08C151.686 25.08 151.303 24.9933 150.963 24.82C150.623 24.64 150.353 24.3733 150.153 24.02C149.959 23.6667 149.863 23.2367 149.863 22.73V19.52H150.763V22.61C150.763 23.15 150.899 23.5667 151.173 23.86C151.446 24.1467 151.819 24.29 152.293 24.29C152.779 24.29 153.163 24.14 153.443 23.84C153.723 23.54 153.863 23.1033 153.863 22.53V19.52H154.773ZM157.219 20.54C157.406 20.2133 157.679 19.9467 158.039 19.74C158.399 19.5333 158.809 19.43 159.269 19.43C159.762 19.43 160.206 19.5467 160.599 19.78C160.992 20.0133 161.302 20.3433 161.529 20.77C161.756 21.19 161.869 21.68 161.869 22.24C161.869 22.7933 161.756 23.2867 161.529 23.72C161.302 24.1533 160.989 24.49 160.589 24.73C160.196 24.97 159.756 25.09 159.269 25.09C158.796 25.09 158.379 24.9867 158.019 24.78C157.666 24.5733 157.399 24.31 157.219 23.99V25H156.309V17.6H157.219V20.54ZM160.939 22.24C160.939 21.8267 160.856 21.4667 160.689 21.16C160.522 20.8533 160.296 20.62 160.009 20.46C159.729 20.3 159.419 20.22 159.079 20.22C158.746 20.22 158.436 20.3033 158.149 20.47C157.869 20.63 157.642 20.8667 157.469 21.18C157.302 21.4867 157.219 21.8433 157.219 22.25C157.219 22.6633 157.302 23.0267 157.469 23.34C157.642 23.6467 157.869 23.8833 158.149 24.05C158.436 24.21 158.746 24.29 159.079 24.29C159.419 24.29 159.729 24.21 160.009 24.05C160.296 23.8833 160.522 23.6467 160.689 23.34C160.856 23.0267 160.939 22.66 160.939 22.24Z" fill="white"/>
<path d="M32.044 15H30.448L25.646 7.734V15H24.05V5.256H25.646L30.448 12.508V5.256H32.044V15ZM37.3458 15.098C36.6925 15.098 36.1045 14.986 35.5818 14.762C35.0592 14.5287 34.6485 14.202 34.3498 13.782C34.0512 13.362 33.9018 12.872 33.9018 12.312H35.6098C35.6472 12.732 35.8105 13.0773 36.0998 13.348C36.3985 13.6187 36.8138 13.754 37.3458 13.754C37.8965 13.754 38.3258 13.6233 38.6338 13.362C38.9418 13.0913 39.0958 12.746 39.0958 12.326C39.0958 11.9993 38.9978 11.7333 38.8018 11.528C38.6152 11.3227 38.3772 11.164 38.0878 11.052C37.8078 10.94 37.4158 10.8187 36.9118 10.688C36.2772 10.52 35.7592 10.352 35.3578 10.184C34.9658 10.0067 34.6298 9.736 34.3498 9.372C34.0698 9.008 33.9298 8.52267 33.9298 7.916C33.9298 7.356 34.0698 6.866 34.3498 6.446C34.6298 6.026 35.0218 5.704 35.5258 5.48C36.0298 5.256 36.6132 5.144 37.2758 5.144C38.2185 5.144 38.9885 5.382 39.5858 5.858C40.1925 6.32467 40.5285 6.96867 40.5938 7.79H38.8298C38.8018 7.43533 38.6338 7.132 38.3258 6.88C38.0178 6.628 37.6118 6.502 37.1078 6.502C36.6505 6.502 36.2772 6.61867 35.9878 6.852C35.6985 7.08533 35.5538 7.42133 35.5538 7.86C35.5538 8.15867 35.6425 8.406 35.8198 8.602C36.0065 8.78867 36.2398 8.938 36.5198 9.05C36.7998 9.162 37.1825 9.28333 37.6678 9.414C38.3118 9.59133 38.8345 9.76867 39.2358 9.946C39.6465 10.1233 39.9918 10.3987 40.2718 10.772C40.5612 11.136 40.7058 11.626 40.7058 12.242C40.7058 12.7367 40.5705 13.2033 40.2998 13.642C40.0385 14.0807 39.6512 14.4353 39.1378 14.706C38.6338 14.9673 38.0365 15.098 37.3458 15.098ZM42.0571 10.114C42.0571 9.162 42.2764 8.308 42.7151 7.552C43.1631 6.796 43.7651 6.208 44.5211 5.788C45.2864 5.35867 46.1217 5.144 47.0271 5.144C48.0631 5.144 48.9824 5.40067 49.7851 5.914C50.5971 6.418 51.1851 7.13667 51.5491 8.07H49.6311C49.3791 7.55667 49.0291 7.174 48.5811 6.922C48.1331 6.67 47.6151 6.544 47.0271 6.544C46.3831 6.544 45.8091 6.68867 45.3051 6.978C44.8011 7.26733 44.4044 7.68267 44.1151 8.224C43.8351 8.76533 43.6951 9.39533 43.6951 10.114C43.6951 10.8327 43.8351 11.4627 44.1151 12.004C44.4044 12.5453 44.8011 12.9653 45.3051 13.264C45.8091 13.5533 46.3831 13.698 47.0271 13.698C47.6151 13.698 48.1331 13.572 48.5811 13.32C49.0291 13.068 49.3791 12.6853 49.6311 12.172H51.5491C51.1851 13.1053 50.5971 13.824 49.7851 14.328C48.9824 14.832 48.0631 15.084 47.0271 15.084C46.1124 15.084 45.2771 14.874 44.5211 14.454C43.7651 14.0247 43.1631 13.432 42.7151 12.676C42.2764 11.92 42.0571 11.066 42.0571 10.114ZM52.8852 10.114C52.8852 9.162 53.1045 8.308 53.5432 7.552C53.9912 6.796 54.5932 6.208 55.3492 5.788C56.1145 5.35867 56.9499 5.144 57.8552 5.144C58.8912 5.144 59.8105 5.40067 60.6132 5.914C61.4252 6.418 62.0132 7.13667 62.3772 8.07H60.4592C60.2072 7.55667 59.8572 7.174 59.4092 6.922C58.9612 6.67 58.4432 6.544 57.8552 6.544C57.2112 6.544 56.6372 6.68867 56.1332 6.978C55.6292 7.26733 55.2325 7.68267 54.9432 8.224C54.6632 8.76533 54.5232 9.39533 54.5232 10.114C54.5232 10.8327 54.6632 11.4627 54.9432 12.004C55.2325 12.5453 55.6292 12.9653 56.1332 13.264C56.6372 13.5533 57.2112 13.698 57.8552 13.698C58.4432 13.698 58.9612 13.572 59.4092 13.32C59.8572 13.068 60.2072 12.6853 60.4592 12.172H62.3772C62.0132 13.1053 61.4252 13.824 60.6132 14.328C59.8105 14.832 58.8912 15.084 57.8552 15.084C56.9405 15.084 56.1052 14.874 55.3492 14.454C54.5932 14.0247 53.9912 13.432 53.5432 12.676C53.1045 11.92 52.8852 11.066 52.8852 10.114ZM74.686 8.168C74.686 8.66267 74.5694 9.12933 74.336 9.568C74.1027 10.0067 73.7294 10.366 73.216 10.646C72.7027 10.9167 72.0447 11.052 71.242 11.052H69.478V15H67.882V5.27H71.242C71.9887 5.27 72.6187 5.40067 73.132 5.662C73.6547 5.914 74.042 6.25933 74.294 6.698C74.5554 7.13667 74.686 7.62667 74.686 8.168ZM71.242 9.75C71.8487 9.75 72.3014 9.61467 72.6 9.344C72.8987 9.064 73.048 8.672 73.048 8.168C73.048 7.104 72.446 6.572 71.242 6.572H69.478V9.75H71.242ZM75.6762 10.114C75.6762 9.162 75.8955 8.308 76.3342 7.552C76.7822 6.796 77.3842 6.208 78.1402 5.788C78.9055 5.35867 79.7409 5.144 80.6462 5.144C81.6822 5.144 82.6015 5.40067 83.4042 5.914C84.2162 6.418 84.8042 7.13667 85.1682 8.07H83.2502C82.9982 7.55667 82.6482 7.174 82.2002 6.922C81.7522 6.67 81.2342 6.544 80.6462 6.544C80.0022 6.544 79.4282 6.68867 78.9242 6.978C78.4202 7.26733 78.0235 7.68267 77.7342 8.224C77.4542 8.76533 77.3142 9.39533 77.3142 10.114C77.3142 10.8327 77.4542 11.4627 77.7342 12.004C78.0235 12.5453 78.4202 12.9653 78.9242 13.264C79.4282 13.5533 80.0022 13.698 80.6462 13.698C81.2342 13.698 81.7522 13.572 82.2002 13.32C82.6482 13.068 82.9982 12.6853 83.2502 12.172H85.1682C84.8042 13.1053 84.2162 13.824 83.4042 14.328C82.6015 14.832 81.6822 15.084 80.6462 15.084C79.7315 15.084 78.8962 14.874 78.1402 14.454C77.3842 14.0247 76.7822 13.432 76.3342 12.676C75.8955 11.92 75.6762 11.066 75.6762 10.114ZM86.5043 10.114C86.5043 9.162 86.7237 8.308 87.1623 7.552C87.6103 6.796 88.2123 6.208 88.9683 5.788C89.7337 5.35867 90.569 5.144 91.4743 5.144C92.5103 5.144 93.4297 5.40067 94.2323 5.914C95.0443 6.418 95.6323 7.13667 95.9963 8.07H94.0783C93.8263 7.55667 93.4763 7.174 93.0283 6.922C92.5803 6.67 92.0623 6.544 91.4743 6.544C90.8303 6.544 90.2563 6.68867 89.7523 6.978C89.2483 7.26733 88.8517 7.68267 88.5623 8.224C88.2823 8.76533 88.1423 9.39533 88.1423 10.114C88.1423 10.8327 88.2823 11.4627 88.5623 12.004C88.8517 12.5453 89.2483 12.9653 89.7523 13.264C90.2563 13.5533 90.8303 13.698 91.4743 13.698C92.0623 13.698 92.5803 13.572 93.0283 13.32C93.4763 13.068 93.8263 12.6853 94.0783 12.172H95.9963C95.6323 13.1053 95.0443 13.824 94.2323 14.328C93.4297 14.832 92.5103 15.084 91.4743 15.084C90.5597 15.084 89.7243 14.874 88.9683 14.454C88.2123 14.0247 87.6103 13.432 87.1623 12.676C86.7237 11.92 86.5043 11.066 86.5043 10.114ZM102.302 15.098C101.397 15.098 100.562 14.888 99.7965 14.468C99.0405 14.0387 98.4385 13.446 97.9905 12.69C97.5518 11.9247 97.3325 11.066 97.3325 10.114C97.3325 9.162 97.5518 8.308 97.9905 7.552C98.4385 6.796 99.0405 6.208 99.7965 5.788C100.562 5.35867 101.397 5.144 102.302 5.144C103.217 5.144 104.052 5.35867 104.808 5.788C105.574 6.208 106.176 6.796 106.614 7.552C107.053 8.308 107.272 9.162 107.272 10.114C107.272 11.066 107.053 11.9247 106.614 12.69C106.176 13.446 105.574 14.0387 104.808 14.468C104.052 14.888 103.217 15.098 102.302 15.098ZM102.302 13.712C102.946 13.712 103.52 13.5673 104.024 13.278C104.528 12.9793 104.92 12.5593 105.2 12.018C105.49 11.4673 105.634 10.8327 105.634 10.114C105.634 9.39533 105.49 8.76533 105.2 8.224C104.92 7.68267 104.528 7.26733 104.024 6.978C103.52 6.68867 102.946 6.544 102.302 6.544C101.658 6.544 101.084 6.68867 100.58 6.978C100.076 7.26733 99.6798 7.68267 99.3905 8.224C99.1105 8.76533 98.9705 9.39533 98.9705 10.114C98.9705 10.8327 99.1105 11.4673 99.3905 12.018C99.6798 12.5593 100.076 12.9793 100.58 13.278C101.084 13.5673 101.658 13.712 102.302 13.712ZM110.439 6.558V9.414H113.799V10.716H110.439V13.698H114.219V15H108.843V5.256H114.219V6.558H110.439Z" fill="white"/>
<g style="mix-blend-mode:hard-light" clip-path="url(#clip0_1140_1907)">
<path fill-rule="evenodd" clip-rule="evenodd" d="M20 5L19.9994 14.9524L20 15C20 20.4588 15.6253 24.8971 10.19 24.9982L10 25C4.47706 25 0 20.5229 0 15C0 9.47706 4.47706 5 10 5H20Z" fill="#6BA9E1"/>
<path fill-rule="evenodd" clip-rule="evenodd" d="M5.07 6.26764V23.5912C2.03647 21.8476 0 18.6212 0 14.9294C0 11.2382 2.03647 8.01176 5.07 6.26764Z" fill="#719DE6"/>
<path fill-rule="evenodd" clip-rule="evenodd" d="M10 5V25C8.15003 25 6.41709 24.5 4.92944 23.6282V6.37176C6.41134 5.50329 8.09207 5.03144 9.80944 5.00176L10 5Z" fill="#52D2CE"/>
<path fill-rule="evenodd" clip-rule="evenodd" d="M10.0176 5L18.0282 21.0382C17.0847 22.2962 15.8594 23.3155 14.4506 24.0141L5.49353 6.07882C6.83808 5.39643 8.32007 5.02835 9.82765 5.00235L10.0176 5Z" fill="#49E1C7"/>
<path fill-rule="evenodd" clip-rule="evenodd" d="M20 5V15.02C20 18.7524 18.0147 22.0082 15.0706 23.7318V5H20Z" fill="#56CAD1"/>
</g>
<defs>
<clipPath id="clip0_1140_1907">
<rect width="20" height="20" fill="white" transform="translate(0 5)"/>
</clipPath>
</defs>
</svg>
