<svg width="270" height="63" viewBox="0 0 270 63" fill="none" xmlns="http://www.w3.org/2000/svg">
<path d="M64.6436 45.3353H63.1616L58.7026 38.5883V45.3353H57.2206V36.2873H58.7026L63.1616 43.0213V36.2873H64.6436V45.3353ZM73.1547 41.5783C73.1547 41.847 73.1374 42.0897 73.1027 42.3063H67.6297C67.6731 42.8783 67.8854 43.3377 68.2667 43.6843C68.6481 44.031 69.1161 44.2043 69.6707 44.2043C70.4681 44.2043 71.0314 43.8707 71.3607 43.2033H72.9597C72.7431 43.862 72.3487 44.4037 71.7767 44.8283C71.2134 45.2443 70.5114 45.4523 69.6707 45.4523C68.9861 45.4523 68.3707 45.3007 67.8247 44.9973C67.2874 44.6853 66.8627 44.252 66.5507 43.6973C66.2474 43.134 66.0957 42.484 66.0957 41.7473C66.0957 41.0107 66.2431 40.365 66.5377 39.8103C66.8411 39.247 67.2614 38.8137 67.7987 38.5103C68.3447 38.207 68.9687 38.0553 69.6707 38.0553C70.3467 38.0553 70.9491 38.2027 71.4777 38.4973C72.0064 38.792 72.4181 39.208 72.7127 39.7453C73.0074 40.274 73.1547 40.885 73.1547 41.5783ZM71.6077 41.1103C71.5991 40.5643 71.4041 40.1267 71.0227 39.7973C70.6414 39.468 70.1691 39.3033 69.6057 39.3033C69.0944 39.3033 68.6567 39.468 68.2927 39.7973C67.9287 40.118 67.7121 40.5557 67.6427 41.1103H71.6077ZM84.2332 38.1723L82.0102 45.3353H80.4502L79.0072 40.0443L77.5642 45.3353H76.0042L73.7682 38.1723H75.2762L76.7712 43.9313L78.2922 38.1723H79.8392L81.2952 43.9053L82.7772 38.1723H84.2332ZM87.0697 39.3813V43.3463C87.0697 43.615 87.1304 43.81 87.2517 43.9313C87.3817 44.044 87.5984 44.1003 87.9017 44.1003H88.8117V45.3353H87.6417C86.9744 45.3353 86.4631 45.1793 86.1077 44.8673C85.7524 44.5553 85.5747 44.0483 85.5747 43.3463V39.3813H84.7297V38.1723H85.5747V36.3913H87.0697V38.1723H88.8117V39.3813H87.0697ZM93.2846 45.4523C92.6086 45.4523 91.9976 45.3007 91.4516 44.9973C90.9056 44.6853 90.4766 44.252 90.1646 43.6973C89.8526 43.134 89.6966 42.484 89.6966 41.7473C89.6966 41.0193 89.857 40.3737 90.1776 39.8103C90.4983 39.247 90.936 38.8137 91.4906 38.5103C92.0453 38.207 92.665 38.0553 93.3496 38.0553C94.0343 38.0553 94.654 38.207 95.2086 38.5103C95.7633 38.8137 96.201 39.247 96.5216 39.8103C96.8423 40.3737 97.0026 41.0193 97.0026 41.7473C97.0026 42.4753 96.838 43.121 96.5086 43.6843C96.1793 44.2477 95.7286 44.6853 95.1566 44.9973C94.5933 45.3007 93.9693 45.4523 93.2846 45.4523ZM93.2846 44.1653C93.666 44.1653 94.0213 44.0743 94.3506 43.8923C94.6886 43.7103 94.9616 43.4373 95.1696 43.0733C95.3776 42.7093 95.4816 42.2673 95.4816 41.7473C95.4816 41.2273 95.382 40.7897 95.1826 40.4343C94.9833 40.0703 94.719 39.7973 94.3896 39.6153C94.0603 39.4333 93.705 39.3423 93.3236 39.3423C92.9423 39.3423 92.587 39.4333 92.2576 39.6153C91.937 39.7973 91.6813 40.0703 91.4906 40.4343C91.3 40.7897 91.2046 41.2273 91.2046 41.7473C91.2046 42.5187 91.3996 43.1167 91.7896 43.5413C92.1883 43.9573 92.6866 44.1653 93.2846 44.1653ZM102.082 38.0553C102.645 38.0553 103.148 38.1723 103.59 38.4063C104.04 38.6403 104.391 38.987 104.643 39.4463C104.894 39.9057 105.02 40.4603 105.02 41.1103V45.3353H103.551V41.3313C103.551 40.69 103.39 40.2003 103.07 39.8623C102.749 39.5157 102.311 39.3423 101.757 39.3423C101.202 39.3423 100.76 39.5157 100.431 39.8623C100.11 40.2003 99.9497 40.69 99.9497 41.3313V45.3353H98.4677V38.1723H99.9497V38.9913C100.192 38.6967 100.5 38.467 100.873 38.3023C101.254 38.1377 101.657 38.0553 102.082 38.0553ZM113.264 45.4263C112.657 45.4263 112.111 45.3223 111.626 45.1143C111.141 44.8977 110.759 44.5943 110.482 44.2043C110.205 43.8143 110.066 43.3593 110.066 42.8393H111.652C111.687 43.2293 111.838 43.55 112.107 43.8013C112.384 44.0527 112.77 44.1783 113.264 44.1783C113.775 44.1783 114.174 44.057 114.46 43.8143C114.746 43.563 114.889 43.2423 114.889 42.8523C114.889 42.549 114.798 42.302 114.616 42.1113C114.443 41.9207 114.222 41.7733 113.953 41.6693C113.693 41.5653 113.329 41.4527 112.861 41.3313C112.272 41.1753 111.791 41.0193 111.418 40.8633C111.054 40.6987 110.742 40.4473 110.482 40.1093C110.222 39.7713 110.092 39.3207 110.092 38.7573C110.092 38.2373 110.222 37.7823 110.482 37.3923C110.742 37.0023 111.106 36.7033 111.574 36.4953C112.042 36.2873 112.584 36.1833 113.199 36.1833C114.074 36.1833 114.789 36.4043 115.344 36.8463C115.907 37.2797 116.219 37.8777 116.28 38.6403H114.642C114.616 38.311 114.46 38.0293 114.174 37.7953C113.888 37.5613 113.511 37.4443 113.043 37.4443C112.618 37.4443 112.272 37.5527 112.003 37.7693C111.734 37.986 111.6 38.298 111.6 38.7053C111.6 38.9827 111.682 39.2123 111.847 39.3943C112.02 39.5677 112.237 39.7063 112.497 39.8103C112.757 39.9143 113.112 40.027 113.563 40.1483C114.161 40.313 114.646 40.4777 115.019 40.6423C115.4 40.807 115.721 41.0627 115.981 41.4093C116.25 41.7473 116.384 42.2023 116.384 42.7743C116.384 43.2337 116.258 43.667 116.007 44.0743C115.764 44.4817 115.405 44.811 114.928 45.0623C114.46 45.305 113.905 45.4263 113.264 45.4263ZM117.639 41.7473C117.639 41.0107 117.786 40.365 118.081 39.8103C118.384 39.247 118.8 38.8137 119.329 38.5103C119.857 38.207 120.464 38.0553 121.149 38.0553C122.015 38.0553 122.73 38.2633 123.294 38.6793C123.866 39.0867 124.251 39.6717 124.451 40.4343H122.852C122.722 40.079 122.514 39.8017 122.228 39.6023C121.942 39.403 121.582 39.3033 121.149 39.3033C120.542 39.3033 120.057 39.52 119.693 39.9533C119.337 40.378 119.16 40.976 119.16 41.7473C119.16 42.5187 119.337 43.121 119.693 43.5543C120.057 43.9877 120.542 44.2043 121.149 44.2043C122.007 44.2043 122.574 43.8273 122.852 43.0733H124.451C124.243 43.8013 123.853 44.382 123.281 44.8153C122.709 45.24 121.998 45.4523 121.149 45.4523C120.464 45.4523 119.857 45.3007 119.329 44.9973C118.8 44.6853 118.384 44.252 118.081 43.6973C117.786 43.134 117.639 42.484 117.639 41.7473ZM129.633 38.0553C130.179 38.0553 130.664 38.1723 131.089 38.4063C131.522 38.6403 131.86 38.987 132.103 39.4463C132.354 39.9057 132.48 40.4603 132.48 41.1103V45.3353H131.011V41.3313C131.011 40.69 130.85 40.2003 130.53 39.8623C130.209 39.5157 129.771 39.3423 129.217 39.3423C128.662 39.3423 128.22 39.5157 127.891 39.8623C127.57 40.2003 127.41 40.69 127.41 41.3313V45.3353H125.928V35.7153H127.41V39.0043C127.661 38.701 127.977 38.467 128.359 38.3023C128.749 38.1377 129.173 38.0553 129.633 38.0553ZM137.477 45.4523C136.801 45.4523 136.19 45.3007 135.644 44.9973C135.098 44.6853 134.669 44.252 134.357 43.6973C134.045 43.134 133.889 42.484 133.889 41.7473C133.889 41.0193 134.049 40.3737 134.37 39.8103C134.691 39.247 135.128 38.8137 135.683 38.5103C136.238 38.207 136.857 38.0553 137.542 38.0553C138.227 38.0553 138.846 38.207 139.401 38.5103C139.956 38.8137 140.393 39.247 140.714 39.8103C141.035 40.3737 141.195 41.0193 141.195 41.7473C141.195 42.4753 141.03 43.121 140.701 43.6843C140.372 44.2477 139.921 44.6853 139.349 44.9973C138.786 45.3007 138.162 45.4523 137.477 45.4523ZM137.477 44.1653C137.858 44.1653 138.214 44.0743 138.543 43.8923C138.881 43.7103 139.154 43.4373 139.362 43.0733C139.57 42.7093 139.674 42.2673 139.674 41.7473C139.674 41.2273 139.574 40.7897 139.375 40.4343C139.176 40.0703 138.911 39.7973 138.582 39.6153C138.253 39.4333 137.897 39.3423 137.516 39.3423C137.135 39.3423 136.779 39.4333 136.45 39.6153C136.129 39.7973 135.874 40.0703 135.683 40.4343C135.492 40.7897 135.397 41.2273 135.397 41.7473C135.397 42.5187 135.592 43.1167 135.982 43.5413C136.381 43.9573 136.879 44.1653 137.477 44.1653ZM145.767 45.4523C145.091 45.4523 144.48 45.3007 143.934 44.9973C143.388 44.6853 142.959 44.252 142.647 43.6973C142.335 43.134 142.179 42.484 142.179 41.7473C142.179 41.0193 142.339 40.3737 142.66 39.8103C142.981 39.247 143.418 38.8137 143.973 38.5103C144.528 38.207 145.147 38.0553 145.832 38.0553C146.517 38.0553 147.136 38.207 147.691 38.5103C148.246 38.8137 148.683 39.247 149.004 39.8103C149.325 40.3737 149.485 41.0193 149.485 41.7473C149.485 42.4753 149.32 43.121 148.991 43.6843C148.662 44.2477 148.211 44.6853 147.639 44.9973C147.076 45.3007 146.452 45.4523 145.767 45.4523ZM145.767 44.1653C146.148 44.1653 146.504 44.0743 146.833 43.8923C147.171 43.7103 147.444 43.4373 147.652 43.0733C147.86 42.7093 147.964 42.2673 147.964 41.7473C147.964 41.2273 147.864 40.7897 147.665 40.4343C147.466 40.0703 147.201 39.7973 146.872 39.6153C146.543 39.4333 146.187 39.3423 145.806 39.3423C145.425 39.3423 145.069 39.4333 144.74 39.6153C144.419 39.7973 144.164 40.0703 143.973 40.4343C143.782 40.7897 143.687 41.2273 143.687 41.7473C143.687 42.5187 143.882 43.1167 144.272 43.5413C144.671 43.9573 145.169 44.1653 145.767 44.1653ZM152.432 35.7153V45.3353H150.95V35.7153H152.432ZM157.261 40.7983C157.261 39.9143 157.464 39.1213 157.872 38.4193C158.288 37.7173 158.847 37.1713 159.549 36.7813C160.259 36.3827 161.035 36.1833 161.876 36.1833C162.838 36.1833 163.691 36.4217 164.437 36.8983C165.191 37.3663 165.737 38.0337 166.075 38.9003H164.294C164.06 38.4237 163.735 38.0683 163.319 37.8343C162.903 37.6003 162.422 37.4833 161.876 37.4833C161.278 37.4833 160.745 37.6177 160.277 37.8863C159.809 38.155 159.44 38.5407 159.172 39.0433C158.912 39.546 158.782 40.131 158.782 40.7983C158.782 41.4657 158.912 42.0507 159.172 42.5533C159.44 43.056 159.809 43.446 160.277 43.7233C160.745 43.992 161.278 44.1263 161.876 44.1263C162.422 44.1263 162.903 44.0093 163.319 43.7753C163.735 43.5413 164.06 43.186 164.294 42.7093H166.075C165.737 43.576 165.191 44.2433 164.437 44.7113C163.691 45.1793 162.838 45.4133 161.876 45.4133C161.026 45.4133 160.251 45.2183 159.549 44.8283C158.847 44.4297 158.288 43.8793 157.872 43.1773C157.464 42.4753 157.261 41.6823 157.261 40.7983ZM170.916 45.4523C170.24 45.4523 169.629 45.3007 169.083 44.9973C168.537 44.6853 168.108 44.252 167.796 43.6973C167.484 43.134 167.328 42.484 167.328 41.7473C167.328 41.0193 167.489 40.3737 167.809 39.8103C168.13 39.247 168.568 38.8137 169.122 38.5103C169.677 38.207 170.297 38.0553 170.981 38.0553C171.666 38.0553 172.286 38.207 172.84 38.5103C173.395 38.8137 173.833 39.247 174.153 39.8103C174.474 40.3737 174.634 41.0193 174.634 41.7473C174.634 42.4753 174.47 43.121 174.14 43.6843C173.811 44.2477 173.36 44.6853 172.788 44.9973C172.225 45.3007 171.601 45.4523 170.916 45.4523ZM170.916 44.1653C171.298 44.1653 171.653 44.0743 171.982 43.8923C172.32 43.7103 172.593 43.4373 172.801 43.0733C173.009 42.7093 173.113 42.2673 173.113 41.7473C173.113 41.2273 173.014 40.7897 172.814 40.4343C172.615 40.0703 172.351 39.7973 172.021 39.6153C171.692 39.4333 171.337 39.3423 170.955 39.3423C170.574 39.3423 170.219 39.4333 169.889 39.6153C169.569 39.7973 169.313 40.0703 169.122 40.4343C168.932 40.7897 168.836 41.2273 168.836 41.7473C168.836 42.5187 169.031 43.1167 169.421 43.5413C169.82 43.9573 170.318 44.1653 170.916 44.1653ZM175.606 41.7213C175.606 41.002 175.753 40.365 176.048 39.8103C176.351 39.2557 176.758 38.8267 177.27 38.5233C177.79 38.2113 178.366 38.0553 178.999 38.0553C179.467 38.0553 179.926 38.1593 180.377 38.3673C180.836 38.5667 181.2 38.8353 181.469 39.1733V35.7153H182.964V45.3353H181.469V44.2563C181.226 44.603 180.888 44.889 180.455 45.1143C180.03 45.3397 179.54 45.4523 178.986 45.4523C178.362 45.4523 177.79 45.2963 177.27 44.9843C176.758 44.6637 176.351 44.2217 176.048 43.6583C175.753 43.0863 175.606 42.4407 175.606 41.7213ZM181.469 41.7473C181.469 41.2533 181.365 40.8243 181.157 40.4603C180.957 40.0963 180.693 39.819 180.364 39.6283C180.034 39.4377 179.679 39.3423 179.298 39.3423C178.916 39.3423 178.561 39.4377 178.232 39.6283C177.902 39.8103 177.634 40.0833 177.426 40.4473C177.226 40.8027 177.127 41.2273 177.127 41.7213C177.127 42.2153 177.226 42.6487 177.426 43.0213C177.634 43.394 177.902 43.68 178.232 43.8793C178.57 44.07 178.925 44.1653 179.298 44.1653C179.679 44.1653 180.034 44.07 180.364 43.8793C180.693 43.6887 180.957 43.4113 181.157 43.0473C181.365 42.6747 181.469 42.2413 181.469 41.7473ZM185.664 37.2233C185.395 37.2233 185.17 37.1323 184.988 36.9503C184.806 36.7683 184.715 36.543 184.715 36.2743C184.715 36.0057 184.806 35.7803 184.988 35.5983C185.17 35.4163 185.395 35.3253 185.664 35.3253C185.924 35.3253 186.145 35.4163 186.327 35.5983C186.509 35.7803 186.6 36.0057 186.6 36.2743C186.6 36.543 186.509 36.7683 186.327 36.9503C186.145 37.1323 185.924 37.2233 185.664 37.2233ZM186.392 38.1723V45.3353H184.91V38.1723H186.392ZM191.952 38.0553C192.515 38.0553 193.018 38.1723 193.46 38.4063C193.91 38.6403 194.261 38.987 194.513 39.4463C194.764 39.9057 194.89 40.4603 194.89 41.1103V45.3353H193.421V41.3313C193.421 40.69 193.26 40.2003 192.94 39.8623C192.619 39.5157 192.181 39.3423 191.627 39.3423C191.072 39.3423 190.63 39.5157 190.301 39.8623C189.98 40.2003 189.82 40.69 189.82 41.3313V45.3353H188.338V38.1723H189.82V38.9913C190.062 38.6967 190.37 38.467 190.743 38.3023C191.124 38.1377 191.527 38.0553 191.952 38.0553ZM199.666 38.0553C200.221 38.0553 200.711 38.168 201.135 38.3933C201.569 38.61 201.907 38.883 202.149 39.2123V38.1723H203.644V45.4523C203.644 46.111 203.506 46.696 203.228 47.2073C202.951 47.7273 202.548 48.1347 202.019 48.4293C201.499 48.724 200.875 48.8713 200.147 48.8713C199.177 48.8713 198.371 48.6417 197.729 48.1823C197.088 47.7317 196.724 47.1163 196.637 46.3363H198.106C198.219 46.709 198.457 47.008 198.821 47.2333C199.194 47.4673 199.636 47.5843 200.147 47.5843C200.745 47.5843 201.226 47.4023 201.59 47.0383C201.963 46.6743 202.149 46.1457 202.149 45.4523V44.2563C201.898 44.5943 201.556 44.8803 201.122 45.1143C200.698 45.3397 200.212 45.4523 199.666 45.4523C199.042 45.4523 198.47 45.2963 197.95 44.9843C197.439 44.6637 197.032 44.2217 196.728 43.6583C196.434 43.0863 196.286 42.4407 196.286 41.7213C196.286 41.002 196.434 40.365 196.728 39.8103C197.032 39.2557 197.439 38.8267 197.95 38.5233C198.47 38.2113 199.042 38.0553 199.666 38.0553ZM202.149 41.7473C202.149 41.2533 202.045 40.8243 201.837 40.4603C201.638 40.0963 201.374 39.819 201.044 39.6283C200.715 39.4377 200.36 39.3423 199.978 39.3423C199.597 39.3423 199.242 39.4377 198.912 39.6283C198.583 39.8103 198.314 40.0833 198.106 40.4473C197.907 40.8027 197.807 41.2273 197.807 41.7213C197.807 42.2153 197.907 42.6487 198.106 43.0213C198.314 43.394 198.583 43.68 198.912 43.8793C199.25 44.07 199.606 44.1653 199.978 44.1653C200.36 44.1653 200.715 44.07 201.044 43.8793C201.374 43.6887 201.638 43.4113 201.837 43.0473C202.045 42.6747 202.149 42.2413 202.149 41.7473ZM208.474 40.7983C208.474 39.9143 208.677 39.1213 209.085 38.4193C209.501 37.7173 210.06 37.1713 210.762 36.7813C211.472 36.3827 212.248 36.1833 213.089 36.1833C214.051 36.1833 214.904 36.4217 215.65 36.8983C216.404 37.3663 216.95 38.0337 217.288 38.9003H215.507C215.273 38.4237 214.948 38.0683 214.532 37.8343C214.116 37.6003 213.635 37.4833 213.089 37.4833C212.491 37.4833 211.958 37.6177 211.49 37.8863C211.022 38.155 210.653 38.5407 210.385 39.0433C210.125 39.546 209.995 40.131 209.995 40.7983C209.995 41.4657 210.125 42.0507 210.385 42.5533C210.653 43.056 211.022 43.446 211.49 43.7233C211.958 43.992 212.491 44.1263 213.089 44.1263C213.635 44.1263 214.116 44.0093 214.532 43.7753C214.948 43.5413 215.273 43.186 215.507 42.7093H217.288C216.95 43.576 216.404 44.2433 215.65 44.7113C214.904 45.1793 214.051 45.4133 213.089 45.4133C212.239 45.4133 211.464 45.2183 210.762 44.8283C210.06 44.4297 209.501 43.8793 209.085 43.1773C208.677 42.4753 208.474 41.6823 208.474 40.7983ZM220.504 35.7153V45.3353H219.022V35.7153H220.504ZM228.937 38.1723V45.3353H227.455V44.4903C227.221 44.785 226.913 45.019 226.532 45.1923C226.159 45.357 225.761 45.4393 225.336 45.4393C224.773 45.4393 224.266 45.3223 223.815 45.0883C223.373 44.8543 223.022 44.5077 222.762 44.0483C222.511 43.589 222.385 43.0343 222.385 42.3843V38.1723H223.854V42.1633C223.854 42.8047 224.014 43.2987 224.335 43.6453C224.656 43.9833 225.093 44.1523 225.648 44.1523C226.203 44.1523 226.64 43.9833 226.961 43.6453C227.29 43.2987 227.455 42.8047 227.455 42.1633V38.1723H228.937ZM232.374 39.2383C232.626 38.8917 232.968 38.61 233.401 38.3933C233.843 38.168 234.333 38.0553 234.87 38.0553C235.503 38.0553 236.075 38.207 236.586 38.5103C237.098 38.8137 237.501 39.247 237.795 39.8103C238.09 40.365 238.237 41.002 238.237 41.7213C238.237 42.4407 238.09 43.0863 237.795 43.6583C237.501 44.2217 237.093 44.6637 236.573 44.9843C236.062 45.2963 235.494 45.4523 234.87 45.4523C234.316 45.4523 233.822 45.344 233.388 45.1273C232.964 44.9107 232.626 44.6333 232.374 44.2953V45.3353H230.892V35.7153H232.374V39.2383ZM236.729 41.7213C236.729 41.2273 236.625 40.8027 236.417 40.4473C236.218 40.0833 235.949 39.8103 235.611 39.6283C235.282 39.4377 234.927 39.3423 234.545 39.3423C234.173 39.3423 233.817 39.4377 233.479 39.6283C233.15 39.819 232.881 40.0963 232.673 40.4603C232.474 40.8243 232.374 41.2533 232.374 41.7473C232.374 42.2413 232.474 42.6747 232.673 43.0473C232.881 43.4113 233.15 43.6887 233.479 43.8793C233.817 44.07 234.173 44.1653 234.545 44.1653C234.927 44.1653 235.282 44.07 235.611 43.8793C235.949 43.68 236.218 43.394 236.417 43.0213C236.625 42.6487 236.729 42.2153 236.729 41.7213Z" fill="white"/>
<path d="M70.4328 23H66.8418L60.8357 13.907V23H57.2447V8.258H60.8357L66.8418 17.393V8.258H70.4328V23ZM78.3698 23.147C77.2918 23.147 76.3258 22.972 75.4718 22.622C74.6178 22.272 73.9318 21.754 73.4138 21.068C72.9098 20.382 72.6438 19.556 72.6158 18.59H76.4378C76.4938 19.136 76.6828 19.556 77.0048 19.85C77.3268 20.13 77.7468 20.27 78.2648 20.27C78.7968 20.27 79.2168 20.151 79.5248 19.913C79.8328 19.661 79.9868 19.318 79.9868 18.884C79.9868 18.52 79.8608 18.219 79.6088 17.981C79.3708 17.743 79.0698 17.547 78.7058 17.393C78.3558 17.239 77.8518 17.064 77.1938 16.868C76.2418 16.574 75.4648 16.28 74.8628 15.986C74.2608 15.692 73.7428 15.258 73.3088 14.684C72.8748 14.11 72.6578 13.361 72.6578 12.437C72.6578 11.065 73.1548 9.994 74.1488 9.224C75.1428 8.44 76.4378 8.048 78.0338 8.048C79.6578 8.048 80.9668 8.44 81.9608 9.224C82.9548 9.994 83.4868 11.072 83.5568 12.458H79.6718C79.6438 11.982 79.4688 11.611 79.1468 11.345C78.8248 11.065 78.4118 10.925 77.9078 10.925C77.4738 10.925 77.1238 11.044 76.8578 11.282C76.5918 11.506 76.4588 11.835 76.4588 12.269C76.4588 12.745 76.6828 13.116 77.1308 13.382C77.5788 13.648 78.2788 13.935 79.2308 14.243C80.1828 14.565 80.9528 14.873 81.5408 15.167C82.1428 15.461 82.6608 15.888 83.0948 16.448C83.5288 17.008 83.7458 17.729 83.7458 18.611C83.7458 19.451 83.5288 20.214 83.0948 20.9C82.6748 21.586 82.0588 22.132 81.2468 22.538C80.4348 22.944 79.4758 23.147 78.3698 23.147ZM85.3467 15.608C85.3467 14.152 85.6617 12.857 86.2917 11.723C86.9217 10.575 87.7967 9.686 88.9167 9.056C90.0507 8.412 91.3317 8.09 92.7597 8.09C94.5097 8.09 96.0077 8.552 97.2537 9.476C98.4997 10.4 99.3327 11.66 99.7527 13.256H95.8047C95.5107 12.64 95.0907 12.171 94.5447 11.849C94.0127 11.527 93.4037 11.366 92.7177 11.366C91.6117 11.366 90.7157 11.751 90.0297 12.521C89.3437 13.291 89.0007 14.32 89.0007 15.608C89.0007 16.896 89.3437 17.925 90.0297 18.695C90.7157 19.465 91.6117 19.85 92.7177 19.85C93.4037 19.85 94.0127 19.689 94.5447 19.367C95.0907 19.045 95.5107 18.576 95.8047 17.96H99.7527C99.3327 19.556 98.4997 20.816 97.2537 21.74C96.0077 22.65 94.5097 23.105 92.7597 23.105C91.3317 23.105 90.0507 22.79 88.9167 22.16C87.7967 21.516 86.9217 20.627 86.2917 19.493C85.6617 18.359 85.3467 17.064 85.3467 15.608ZM101.343 15.608C101.343 14.152 101.658 12.857 102.288 11.723C102.918 10.575 103.793 9.686 104.913 9.056C106.047 8.412 107.328 8.09 108.756 8.09C110.506 8.09 112.004 8.552 113.25 9.476C114.496 10.4 115.329 11.66 115.749 13.256H111.801C111.507 12.64 111.087 12.171 110.541 11.849C110.009 11.527 109.4 11.366 108.714 11.366C107.608 11.366 106.712 11.751 106.026 12.521C105.34 13.291 104.997 14.32 104.997 15.608C104.997 16.896 105.34 17.925 106.026 18.695C106.712 19.465 107.608 19.85 108.714 19.85C109.4 19.85 110.009 19.689 110.541 19.367C111.087 19.045 111.507 18.576 111.801 17.96H115.749C115.329 19.556 114.496 20.816 113.25 21.74C112.004 22.65 110.506 23.105 108.756 23.105C107.328 23.105 106.047 22.79 104.913 22.16C103.793 21.516 102.918 20.627 102.288 19.493C101.658 18.359 101.343 17.064 101.343 15.608ZM133.633 13.004C133.633 13.858 133.437 14.642 133.045 15.356C132.653 16.056 132.051 16.623 131.239 17.057C130.427 17.491 129.419 17.708 128.215 17.708H125.989V23H122.398V8.258H128.215C129.391 8.258 130.385 8.461 131.197 8.867C132.009 9.273 132.618 9.833 133.024 10.547C133.43 11.261 133.633 12.08 133.633 13.004ZM127.942 14.852C128.628 14.852 129.139 14.691 129.475 14.369C129.811 14.047 129.979 13.592 129.979 13.004C129.979 12.416 129.811 11.961 129.475 11.639C129.139 11.317 128.628 11.156 127.942 11.156H125.989V14.852H127.942ZM134.894 15.608C134.894 14.152 135.209 12.857 135.839 11.723C136.469 10.575 137.344 9.686 138.464 9.056C139.598 8.412 140.879 8.09 142.307 8.09C144.057 8.09 145.555 8.552 146.801 9.476C148.047 10.4 148.88 11.66 149.3 13.256H145.352C145.058 12.64 144.638 12.171 144.092 11.849C143.56 11.527 142.951 11.366 142.265 11.366C141.159 11.366 140.263 11.751 139.577 12.521C138.891 13.291 138.548 14.32 138.548 15.608C138.548 16.896 138.891 17.925 139.577 18.695C140.263 19.465 141.159 19.85 142.265 19.85C142.951 19.85 143.56 19.689 144.092 19.367C144.638 19.045 145.058 18.576 145.352 17.96H149.3C148.88 19.556 148.047 20.816 146.801 21.74C145.555 22.65 144.057 23.105 142.307 23.105C140.879 23.105 139.598 22.79 138.464 22.16C137.344 21.516 136.469 20.627 135.839 19.493C135.209 18.359 134.894 17.064 134.894 15.608ZM150.89 15.608C150.89 14.152 151.205 12.857 151.835 11.723C152.465 10.575 153.34 9.686 154.46 9.056C155.594 8.412 156.875 8.09 158.303 8.09C160.053 8.09 161.551 8.552 162.797 9.476C164.043 10.4 164.876 11.66 165.296 13.256H161.348C161.054 12.64 160.634 12.171 160.088 11.849C159.556 11.527 158.947 11.366 158.261 11.366C157.155 11.366 156.259 11.751 155.573 12.521C154.887 13.291 154.544 14.32 154.544 15.608C154.544 16.896 154.887 17.925 155.573 18.695C156.259 19.465 157.155 19.85 158.261 19.85C158.947 19.85 159.556 19.689 160.088 19.367C160.634 19.045 161.054 18.576 161.348 17.96H165.296C164.876 19.556 164.043 20.816 162.797 21.74C161.551 22.65 160.053 23.105 158.303 23.105C156.875 23.105 155.594 22.79 154.46 22.16C153.34 21.516 152.465 20.627 151.835 19.493C151.205 18.359 150.89 17.064 150.89 15.608ZM174.467 23.147C173.081 23.147 171.807 22.825 170.645 22.181C169.497 21.537 168.58 20.641 167.894 19.493C167.222 18.331 166.886 17.029 166.886 15.587C166.886 14.145 167.222 12.85 167.894 11.702C168.58 10.554 169.497 9.658 170.645 9.014C171.807 8.37 173.081 8.048 174.467 8.048C175.853 8.048 177.12 8.37 178.268 9.014C179.43 9.658 180.34 10.554 180.998 11.702C181.67 12.85 182.006 14.145 182.006 15.587C182.006 17.029 181.67 18.331 180.998 19.493C180.326 20.641 179.416 21.537 178.268 22.181C177.12 22.825 175.853 23.147 174.467 23.147ZM174.467 19.871C175.643 19.871 176.581 19.479 177.281 18.695C177.995 17.911 178.352 16.875 178.352 15.587C178.352 14.285 177.995 13.249 177.281 12.479C176.581 11.695 175.643 11.303 174.467 11.303C173.277 11.303 172.325 11.688 171.611 12.458C170.911 13.228 170.561 14.271 170.561 15.587C170.561 16.889 170.911 17.932 171.611 18.716C172.325 19.486 173.277 19.871 174.467 19.871ZM187.595 11.135V14.117H192.404V16.889H187.595V20.123H193.034V23H184.004V8.258H193.034V11.135H187.595Z" fill="white"/>
<g style="mix-blend-mode:hard-light" clip-path="url(#clip0_1070_1909)">
<path fill-rule="evenodd" clip-rule="evenodd" d="M47.4117 6.35779L47.4104 30.2211L47.4117 30.3353C47.4117 43.4243 37.1983 54.0661 24.5088 54.3086L24.0652 54.3129C11.171 54.3129 0.718628 43.578 0.718628 30.3353C0.718628 17.0927 11.171 6.35779 24.0652 6.35779H47.4117Z" fill="#6BA9E1"/>
<path fill-rule="evenodd" clip-rule="evenodd" d="M12.5553 9.39728V50.9348C5.47309 46.7543 0.718628 39.018 0.718628 30.1661C0.718628 21.3155 5.47309 13.5792 12.5553 9.39728Z" fill="#719DE6"/>
<path fill-rule="evenodd" clip-rule="evenodd" d="M24.0651 6.35779V54.3129C19.746 54.3129 15.7002 53.114 12.2271 51.0237V9.64694C15.6868 7.56455 19.6107 6.43318 23.6202 6.36202L24.0651 6.35779Z" fill="#52D2CE"/>
<path fill-rule="evenodd" clip-rule="evenodd" d="M24.1063 6.35779L42.8083 44.8135C40.6055 47.8299 37.7448 50.2738 34.4557 51.949L13.5441 8.94454C16.6831 7.30833 20.1431 6.42576 23.6627 6.36343L24.1063 6.35779Z" fill="#49E1C7"/>
<path fill-rule="evenodd" clip-rule="evenodd" d="M47.4118 6.35779V30.3833C47.4118 39.3326 42.7768 47.1394 35.9033 51.272V6.35779H47.4118Z" fill="#56CAD1"/>
</g>
<defs>
<clipPath id="clip0_1070_1909">
<rect width="46.6931" height="47.9551" fill="white" transform="translate(0.718628 6.35779)"/>
</clipPath>
</defs>
</svg>
